P3
64 64
255
162 165 156 28 55 1 75 85 60 93 101 79 79 90 65 
71 83 56 77 86 61 60 72 37 90 99 77 253 254 251 
201 203 198 1 1 1 195 197 191 198 200 193 84 94 67 
122 131 114 171 177 166 65 76 45 197 201 194 149 156 145 
63 80 45 82 91 71 248 249 247 214 215 212 63 76 43 
242 243 239 103 110 94 174 180 172 187 191 182 64 76 46 
66 77 45 120 127 111 83 94 70 52 69 30 143 148 137 
78 87 64 109 117 98 1 35 1 182 187 181 167 172 163 
1 36 1 43 59 1 89 98 75 71 84 57 66 80 51 
69 82 55 75 89 62 201 203 197 245 246 243 195 197 194 
1 41 1 163 169 158 103 114 94 146 150 142 228 228 224 
49 67 28 150 155 145 160 165 155 103 113 96 85 96 74 
43 62 20 100 108 90 92 102 82 197 199 193 151 155 147 
35 58 1 96 104 84 102 111 89 87 98 74 37 58 1 
133 138 127 164 169 160 89 100 79 232 234 232 143 148 140 
139 145 131 176 180 169 65 80 43 164 168 159 175 177 172 
66 77 42 76 86 59 144 149 137 57 70 35 61 78 41 
92 99 83 201 203 197 93 102 81 65 82 49 122 129 112 
59 74 41 72 83 56 130 135 120 90 99 78 60 73 40 
100 107 90 159 163 155 65 79 46 178 181 174 159 164 155 
42 62 1 114 123 107 201 205 199 144 150 140 116 122 110 
195 199 193 137 142 130 63 77 47 94 104 78 157 160 151 
227 229 226 208 210 203 113 120 105 123 129 111 93 102 82 
54 73 36 140 146 132 124 130 114 99 107 89 58 77 37 
97 106 87 199 203 195 159 165 155 59 73 30 182 186 177 
171 176 169 96 105 86 231 232 226 139 144 134 48 63 7 
89 97 79 68 78 50 71 83 57 53 69 29 119 126 111 
142 147 135 59 74 37 10 47 0 37 56 1 145 150 138 
119 127 111 16 50 1 156 159 149 238 239 235 128 133 119 
50 66 17 114 120 101 109 117 97 72 86 57 63 75 45 
188 191 183 159 164 157 73 87 63 107 115 99 155 159 151 
152 158 145 134 140 127 61 75 45 1 41 1 168 172 165 
249 250 246 58 72 36 187 190 185 228 232 226 41 65 1 
116 122 109 129 135 122 1 1 1 209 212 207 188 192 187 
123 129 114 57 70 31 85 94 67 153 157 147 160 164 157 
1 1 1 77 87 60 81 90 63 83 92 68 57 72 35 
45 66 11 69 83 54 59 75 42 70 81 54 89 97 77 
149 154 143 157 162 152 52 65 22 123 129 116 156 161 153 
65 76 48 151 155 145 74 83 58 77 87 59 55 68 32 
117 124 107 116 125 107 61 76 45 72 82 54 49 64 11 
98 105 82 192 195 188 125 131 119 34 54 1 68 80 53 
74 86 61 54 70 28 64 77 47 76 87 62 65 77 42 
204 208 200 125 131 118 64 78 49 36 55 1 177 180 173 
221 223 220 152 158 146 119 126 111 155 160 148 121 127 112 
160 166 155 62 76 45 52 65 21 205 209 203 156 161 150 
1 1 1 141 146 135 129 134 122 51 70 28 96 104 85 
95 103 84 73 86 59 122 129 113 63 78 46 1 33 1 
110 117 102 77 88 62 8 47 1 84 96 70 139 144 130 
81 91 66 139 146 132 62 75 41 107 114 100 130 134 125 
72 84 59 75 88 62 71 83 54 80 89 69 154 159 149 
86 95 71 94 102 81 66 77 46 3 39 1 70 81 53 
84 94 71 67 77 50 77 87 60 77 89 63 72 86 58 
78 91 65 70 84 56 74 87 60 72 84 57 76 86 61 
159 165 154 104 112 96 66 80 49 76 88 63 74 86 60 
63 78 47 68 82 55 97 107 87 48 65 21 132 138 127 
125 132 119 59 72 33 80 90 65 59 71 34 1 1 1 
145 149 137 155 160 151 43 64 7 101 109 86 92 101 77 
59 74 42 75 86 60 194 199 190 89 98 80 68 82 51 
86 98 74 72 85 58 54 70 27 167 172 162 176 181 171 
51 65 15 146 152 140 62 79 47 169 173 163 205 208 200 
64 79 46 60 78 38 142 147 137 220 222 217 76 86 62 
178 184 174 1 1 1 186 189 185 244 244 242 112 121 101 
69 82 55 67 79 47 105 113 97 159 164 154 82 90 71 
113 120 102 95 102 86 107 115 97 70 83 54 30 56 1 
127 132 118 56 70 28 78 90 66 106 115 98 90 100 78 
68 82 53 76 88 63 54 70 31 118 124 111 162 166 156 
51 67 22 69 82 55 71 83 56 66 80 51 91 99 79 
195 199 190 132 138 126 63 77 44 108 116 97 105 113 94 
89 98 75 58 71 30 194 199 190 123 130 118 124 129 113 
199 203 197 35 59 1 53 67 24 79 88 65 80 91 67 
93 101 81 64 76 44 77 87 63 78 90 64 66 80 51 
61 74 46 87 98 74 112 120 102 62 74 41 94 102 80 
149 155 143 126 134 122 177 181 172 91 96 77 70 84 54 
62 78 42 175 178 170 242 243 238 89 99 76 63 74 41 
30 56 1 158 164 154 162 166 156 1 1 1 65 79 49 
62 76 46 70 82 51 10 44 1 54 67 28 73 84 59 
76 86 59 79 90 64 88 100 78 157 161 152 158 161 153 
0 37 0 104 115 95 215 219 210 132 138 124 55 69 28 
83 93 71 1 38 1 165 167 161 247 248 247 67 79 52 
103 111 88 91 101 78 62 77 46 88 97 76 142 148 136 
98 106 88 63 75 40 96 104 83 98 106 86 83 93 69 
0 40 0 198 202 195 148 153 144 1 15 1 51 63 7 
114 119 104 187 189 183 219 220 214 179 183 173 183 186 179 
132 136 125 102 111 94 39 55 1 122 129 112 138 143 130 
88 96 78 109 118 101 71 85 56 68 78 48 57 71 21 
113 120 104 124 131 114 74 84 55 75 85 60 61 78 43 
175 178 170 211 213 207 62 79 43 90 99 75 72 83 56 
34 59 1 129 134 122 203 207 203 169 174 165 194 198 191 
220 221 217 216 218 213 118 124 109 134 142 125 91 99 76 
68 79 48 122 129 113 204 205 199 163 165 157 32 58 1 
63 78 48 150 155 141 95 103 83 68 79 49 76 87 62 
51 69 30 121 129 113 174 179 170 65 79 50 92 100 76 
82 93 69 72 85 58 60 73 35 117 124 109 99 107 90 
140 146 133 159 164 152 48 61 3 81 91 67 69 83 56 
98 105 88 56 67 34 157 165 153 146 155 140 152 159 144 
203 207 201 152 160 149 1 32 1 189 195 187 255 255 255 
136 143 131 10 51 1 190 195 187 95 105 84 170 172 166 
235 236 232 30 57 1 98 108 86 118 126 107 117 125 107 
87 96 76 102 110 90 100 108 87 54 72 37 153 158 145 
89 99 77 144 149 137 171 174 163 74 85 57 1 34 1 
186 191 183 207 211 207 74 84 58 92 101 80 149 152 145 
248 248 246 141 146 135 61 73 41 22 45 0 68 80 45 
50 65 16 146 149 141 151 154 145 35 58 1 75 86 60 
72 83 54 95 106 86 66 80 51 73 86 59 72 85 58 
64 79 48 1 34 1 68 82 53 64 78 49 70 84 56 
82 93 70 47 65 19 159 164 154 154 159 149 80 88 64 
114 122 107 86 95 74 84 95 71 56 77 36 50 77 29 
1 46 1 148 151 141 170 165 161 126 110 112 122 101 109 
121 102 110 121 103 109 172 158 166 234 224 232 162 151 156 
107 100 93 213 211 209 150 154 147 127 135 120 199 202 196 
1 39 1 223 224 219 124 129 116 54 68 22 85 94 71 
87 96 75 99 107 88 63 79 47 167 172 163 126 132 120 
109 116 103 202 206 199 137 141 129 93 101 80 195 200 191 
112 123 105 75 89 63 95 104 84 70 81 51 97 104 85 
72 82 58 35 57 1 176 180 174 230 232 228 108 116 99 
163 166 160 152 156 147 1 39 1 111 117 102 152 158 145 
24 48 1 77 89 65 74 86 61 53 70 28 148 153 142 
196 200 193 64 77 47 85 97 73 65 79 49 27 54 1 
58 74 42 95 102 83 42 57 1 64 79 41 31 64 1 
69 82 56 96 97 83 109 103 99 155 130 141 174 143 161 
179 142 169 191 149 179 198 155 184 199 158 188 199 156 187 
199 154 186 196 150 183 187 137 172 196 154 186 192 149 178 
194 153 181 192 159 183 160 136 147 140 136 132 201 204 200 
202 205 198 1 45 1 165 171 161 102 109 90 103 110 90 
94 103 83 71 86 56 158 162 155 243 245 241 120 129 115 
40 64 9 95 106 86 136 143 129 138 144 130 50 66 17 
227 230 224 170 174 164 20 47 1 1 6 1 73 83 55 
192 195 188 237 238 236 212 214 209 119 127 114 199 201 198 
151 154 145 20 51 1 90 98 79 183 189 177 117 123 109 
67 78 49 73 85 59 72 84 57 88 96 74 144 149 137 
85 94 72 92 101 76 110 116 100 154 159 146 149 153 143 
236 238 234 132 138 128 155 155 149 131 119 123 175 141 163 
194 150 180 195 152 182 205 160 194 193 144 180 195 149 186 
200 156 188 198 155 185 194 151 182 196 154 183 199 154 183 
200 154 186 201 157 190 195 153 184 197 154 186 191 144 177 
193 146 180 204 158 190 196 153 184 211 177 202 178 142 166 
130 102 114 201 202 196 171 177 168 44 59 1 106 112 93 
77 88 65 35 55 1 86 96 78 153 159 146 0 28 0 
89 101 79 42 64 7 100 108 87 117 123 108 130 136 121 
1 11 1 122 129 114 186 187 180 99 106 89 176 178 170 
181 184 176 1 1 1 162 166 158 247 247 245 152 155 146 
43 64 1 49 64 14 114 121 105 148 155 142 59 71 36 
75 87 61 70 83 55 74 83 57 110 117 100 81 90 67 
62 73 36 100 107 88 124 133 116 135 144 129 235 230 233 
211 188 206 200 156 189 202 158 189 197 152 186 197 152 187 
194 152 179 144 113 131 227 218 225 202 192 197 109 89 94 
167 156 162 182 173 177 112 97 97 122 111 110 118 106 105 
121 112 111 112 108 102 86 81 71 188 185 184 155 149 147 
120 101 107 150 126 140 159 126 147 195 155 183 195 151 182 
193 161 183 211 202 207 46 74 13 88 103 73 63 84 46 
74 87 63 152 156 146 232 233 229 236 236 233 146 151 140 
81 90 69 250 251 248 201 203 197 1 26 1 170 175 165 
249 251 248 243 243 241 163 167 157 132 139 124 81 92 69 
68 83 55 1 10 1 176 178 174 146 149 139 8 47 1 
107 115 95 79 89 62 49 66 24 75 86 62 70 81 52 
85 95 74 43 64 19 115 124 109 87 95 77 105 115 97 
77 88 65 137 112 125 178 139 164 196 153 184 191 146 180 
166 131 152 129 111 112 186 144 171 191 148 179 171 165 163 
159 164 155 225 227 222 137 145 131 25 69 1 141 153 137 
130 141 127 79 81 63 117 110 106 117 111 108 115 108 106 
111 105 101 85 82 72 161 163 153 134 138 125 53 66 30 
86 92 74 112 103 98 183 157 173 197 152 187 193 149 183 
191 152 181 162 133 147 148 123 138 170 157 165 75 89 66 
185 188 181 221 222 218 220 222 218 119 124 110 197 199 193 
230 231 227 102 108 88 147 153 141 157 161 152 187 189 182 
129 135 122 48 62 7 92 100 79 37 55 0 202 206 200 
126 133 119 164 167 162 202 205 200 18 50 1 111 118 99 
77 87 60 56 72 38 77 89 65 58 70 32 117 124 109 
174 178 170 136 140 129 75 87 61 192 196 190 182 153 171 
203 156 190 187 148 175 143 118 132 136 131 127 119 133 112 
106 104 97 202 157 190 151 118 137 141 151 138 240 243 239 
51 72 30 84 93 72 221 217 218 210 191 203 183 148 173 
190 150 179 198 155 186 197 154 184 197 155 184 196 153 182 
196 153 182 186 141 172 183 143 169 189 150 174 192 150 177 
196 154 185 195 151 184 194 151 184 192 152 182 192 152 184 
199 153 186 199 154 186 201 158 191 157 133 146 1 9 1 
48 67 19 42 63 4 95 106 87 136 142 131 99 108 89 
70 82 50 141 147 129 71 79 50 178 181 175 105 112 94 
105 113 93 97 104 85 140 145 133 222 225 219 102 110 90 
191 194 188 229 231 228 73 86 60 46 61 3 127 133 119 
124 131 114 62 74 40 73 85 58 76 87 62 170 173 165 
200 203 195 74 91 62 169 144 158 206 162 195 160 131 147 
85 97 72 92 109 81 126 114 113 205 187 195 195 164 187 
193 150 182 106 101 92 167 170 161 194 185 189 151 119 136 
188 154 177 198 159 188 194 144 180 194 152 185 194 151 184 
194 149 180 194 150 180 195 150 180 196 152 183 194 150 184 
197 155 188 199 156 188 198 153 187 197 150 183 192 150 180 
193 152 184 193 152 183 196 152 185 194 151 184 193 150 182 
194 150 180 193 150 182 193 152 183 141 125 130 90 104 78 
95 103 85 141 148 132 1 39 1 121 129 112 125 132 118 
1 31 1 131 136 123 210 213 210 91 98 79 129 135 117 
224 226 222 166 169 163 4 43 1 58 73 37 156 161 152 
191 192 187 1 1 1 83 92 68 109 117 99 122 129 112 
65 76 43 74 86 59 77 88 66 89 98 78 54 77 33 
134 119 124 197 150 184 171 136 159 63 80 49 91 98 80 
185 161 177 198 153 187 190 145 177 198 150 185 186 147 172 
148 124 137 182 147 171 193 148 182 200 157 187 195 147 181 
189 147 179 188 151 179 191 152 184 194 151 184 201 156 187 
199 155 188 193 156 184 182 147 169 186 154 173 179 145 168 
173 139 164 179 145 170 194 157 185 201 157 188 193 147 181 
190 149 180 186 148 172 194 150 181 196 151 182 195 151 181 
192 151 183 193 150 183 199 157 188 163 143 153 59 75 42 
86 96 75 43 59 1 134 140 125 129 137 123 60 75 42 
60 75 46 79 91 69 82 92 67 38 56 1 209 211 204 
182 185 178 34 58 1 54 70 36 127 134 121 226 228 224 
184 189 182 172 177 167 47 61 7 61 75 44 77 88 63 
63 75 42 90 97 80 202 205 198 141 141 131 181 140 169 
206 171 197 131 131 123 100 96 90 191 151 176 202 156 190 
163 133 152 160 132 147 198 154 186 196 151 185 202 157 189 
192 149 177 197 152 184 192 144 181 202 175 194 153 136 145 
171 137 161 200 154 188 191 151 179 159 127 145 95 79 79 
94 96 82 105 110 91 221 223 219 154 157 149 26 51 1 
71 81 53 93 86 80 139 113 127 195 163 188 194 152 186 
187 148 175 187 146 174 196 151 183 195 150 181 195 151 181 
195 151 184 193 149 182 200 154 186 155 126 142 98 105 89 
133 139 126 58 75 39 65 77 49 71 84 56 84 93 72 
139 145 131 71 85 57 66 82 54 79 91 63 44 63 7 
66 80 51 7 46 1 173 176 170 231 232 230 165 171 160 
115 121 107 73 83 56 75 87 61 72 84 58 71 81 53 
122 129 113 76 92 64 98 88 85 189 142 175 231 218 228 
204 195 201 183 140 170 196 155 184 126 108 114 88 89 73 
185 147 170 198 153 186 188 150 177 112 103 100 157 134 147 
197 153 187 203 174 195 207 187 203 188 146 175 198 154 185 
184 149 167 94 86 78 139 146 134 190 193 187 119 126 110 
0 3 0 236 238 234 193 196 188 1 1 1 120 127 111 
152 157 146 155 162 146 236 237 234 213 201 210 182 139 169 
201 158 191 194 150 180 197 151 183 190 148 178 180 146 170 
196 153 184 194 149 181 196 149 183 189 157 176 130 126 121 
78 96 67 91 101 80 63 78 46 73 88 59 107 115 98 
92 99 81 177 181 174 167 171 165 123 128 117 127 131 118 
207 209 203 237 237 237 189 191 186 1 1 1 91 99 80 
73 83 54 72 85 58 73 85 58 62 75 42 184 189 179 
95 108 87 153 146 145 196 160 184 195 168 185 202 158 192 
186 148 174 106 96 93 125 139 120 197 184 189 193 145 180 
198 155 188 158 131 146 129 115 115 195 153 180 190 151 179 
197 167 188 198 154 186 206 179 199 136 121 124 133 139 124 
1 26 1 207 209 205 255 255 255 240 241 237 141 147 133 
107 112 99 110 117 101 51 68 26 117 123 107 170 173 162 
111 118 103 108 117 101 158 165 152 107 104 95 165 133 156 
199 154 186 194 150 180 196 152 184 179 146 166 188 146 175 
196 151 185 192 151 182 197 154 187 164 129 153 167 144 156 
162 137 152 69 82 54 97 94 84 100 106 86 171 176 166 
242 243 240 255 255 255 216 217 212 211 213 206 119 125 111 
194 196 192 212 213 209 158 163 151 168 173 161 44 60 1 
76 88 63 72 84 57 74 84 57 83 91 70 36 65 1 
124 116 112 196 155 184 195 146 180 178 137 164 85 89 72 
63 81 50 212 215 206 190 170 182 194 147 183 194 151 183 
183 145 172 198 154 186 196 151 182 196 152 183 191 147 179 
138 112 123 156 163 153 68 87 56 24 47 1 145 150 136 
239 240 236 242 243 241 182 185 179 58 72 39 106 113 97 
82 92 70 70 83 54 66 80 51 1 1 1 151 156 147 
147 152 141 0 0 0 126 136 118 136 142 129 174 138 165 
200 155 187 196 149 182 188 152 180 192 170 184 193 151 181 
193 151 183 193 151 184 198 154 187 201 154 188 175 143 165 
115 110 106 197 159 185 127 119 117 112 112 102 115 111 103 
124 134 117 84 94 71 100 106 90 200 203 196 236 236 234 
201 203 198 93 103 83 97 105 87 71 81 56 73 85 59 
72 85 58 76 86 59 86 95 69 159 165 152 164 159 157 
184 140 173 200 158 188 167 156 158 70 90 50 91 100 82 
215 215 211 184 146 173 196 150 183 194 151 182 198 153 185 
193 151 181 193 148 182 189 151 179 123 114 110 185 191 180 
179 182 171 35 53 1 167 172 161 125 131 116 199 202 196 
141 146 134 109 117 99 147 154 142 206 209 203 129 133 121 
45 65 7 85 96 76 31 58 1 219 221 217 195 198 192 
1 23 1 215 216 210 245 247 243 150 147 143 181 137 169 
196 153 184 199 154 187 156 133 146 180 144 168 176 141 165 
189 148 177 187 149 174 191 150 179 193 156 182 149 140 139 
108 92 92 162 165 155 182 153 172 189 162 179 137 129 130 
89 84 73 90 105 83 176 179 173 195 196 192 168 171 164 
1 13 1 86 94 74 112 120 102 74 87 61 68 81 52 
90 99 77 91 99 79 161 166 156 197 193 192 184 137 171 
202 170 192 196 197 192 41 61 1 139 147 132 166 159 159 
194 149 181 196 150 182 194 152 181 180 146 170 188 143 177 
211 181 204 179 175 174 76 97 66 218 220 217 145 151 141 
47 67 14 122 129 113 70 80 54 120 127 112 1 36 1 
135 141 128 165 171 161 211 212 208 189 191 184 30 58 1 
62 78 45 64 79 48 155 159 149 66 79 55 127 132 116 
252 252 250 255 255 255 192 197 189 141 121 129 200 155 186 
195 145 179 193 170 186 199 169 190 154 128 140 172 141 161 
183 144 172 139 121 127 198 151 185 176 143 164 179 183 175 
164 169 157 129 126 123 191 188 188 175 140 162 156 126 142 
124 123 115 1 21 1 163 165 156 208 210 207 46 67 6 
95 103 82 99 107 88 89 99 77 60 74 42 102 110 91 
186 191 182 100 111 92 105 97 89 189 142 174 226 209 220 
168 175 165 1 30 1 101 113 93 125 114 115 196 151 183 
196 150 182 193 153 182 182 145 171 194 150 181 163 153 156 
119 131 112 63 76 46 51 67 20 98 107 89 67 80 50 
66 79 48 41 60 1 151 155 144 191 195 187 123 129 119 
1 1 1 199 201 195 215 216 211 1 1 1 144 149 137 
112 118 103 83 95 70 81 95 68 89 96 74 153 156 144 
241 241 239 219 221 217 106 100 92 193 150 181 196 150 182 
195 160 186 189 148 178 208 189 201 176 161 168 187 143 175 
88 97 74 185 157 174 197 150 185 250 245 248 160 167 157 
144 150 138 223 225 219 173 176 170 186 168 180 192 153 180 
103 94 93 207 209 201 204 206 201 33 58 1 58 72 33 
102 111 89 85 96 72 71 83 56 55 67 25 64 75 45 
72 89 59 110 102 95 189 145 174 188 179 180 114 123 106 
62 75 45 48 74 26 132 114 120 200 155 186 195 149 181 
196 153 183 201 155 189 162 133 151 73 87 61 130 137 123 
64 78 49 59 71 36 208 213 207 143 149 139 1 41 1 
60 76 46 192 194 186 188 191 184 208 212 203 120 127 110 
157 162 155 218 221 215 43 63 2 223 225 221 167 170 161 
1 1 1 85 96 75 58 74 42 58 74 33 58 74 30 
57 75 36 141 146 133 187 152 172 196 152 184 190 149 180 
194 149 183 183 157 174 149 132 138 195 155 184 130 132 122 
118 108 104 198 154 185 140 127 132 1 1 1 149 151 144 
248 248 247 157 162 153 131 135 126 170 139 159 172 134 159 
194 198 192 117 123 108 50 68 23 101 110 91 121 129 114 
103 111 95 56 71 32 124 131 115 129 134 120 26 60 1 
108 99 93 186 141 173 203 196 196 146 153 139 1 41 1 
64 75 44 179 144 166 199 153 185 193 149 180 200 153 185 
175 142 159 55 75 38 92 102 82 155 161 149 65 77 46 
97 104 85 159 164 155 151 157 148 162 165 155 56 73 41 
182 186 174 97 106 83 54 70 29 86 95 72 45 63 9 
115 123 106 95 105 84 97 105 85 159 164 152 129 134 120 
67 79 50 71 83 55 104 112 95 157 161 151 72 82 55 
157 164 151 160 133 150 200 152 185 192 149 180 200 155 187 
167 134 155 129 111 115 205 166 194 191 189 189 103 105 93 
197 157 184 137 114 124 111 124 106 213 216 210 247 247 246 
144 148 138 8 57 1 97 99 85 181 142 171 200 187 194 
65 78 52 71 84 56 134 140 124 191 195 185 190 194 185 
58 71 34 112 119 103 163 168 156 50 73 27 140 134 131 
193 154 184 130 120 120 96 109 85 96 106 85 164 155 157 
194 149 180 195 151 180 197 151 183 191 149 178 126 126 116 
62 80 43 92 99 79 92 100 79 1 1 1 173 178 168 
187 192 185 1 43 1 234 236 232 146 151 141 78 88 65 
121 129 112 63 74 38 65 75 45 186 190 179 87 99 78 
51 68 31 52 68 26 230 232 228 246 248 246 139 145 135 
1 1 1 198 199 195 255 255 253 103 110 92 4 53 1 
162 149 153 199 155 187 194 148 182 200 153 186 173 140 160 
118 103 103 198 155 186 248 245 248 230 231 229 202 164 192 
137 113 125 130 141 124 189 191 184 246 246 245 243 243 242 
106 114 98 47 69 27 166 141 155 136 114 124 75 86 63 
73 85 57 58 72 36 23 51 1 59 72 36 75 85 57 
78 87 63 78 86 63 80 94 68 178 175 172 190 149 180 
205 199 202 173 178 167 86 101 77 200 179 191 196 147 181 
195 150 181 198 153 185 146 123 133 84 103 73 68 78 51 
132 139 123 166 171 158 189 192 185 100 106 89 200 204 198 
126 131 117 245 245 243 201 204 197 1 14 1 52 65 23 
105 113 95 209 214 207 185 189 182 96 106 85 134 140 126 
66 79 47 131 138 124 191 195 188 79 89 66 116 123 107 
245 245 243 248 247 248 203 206 199 76 89 62 146 144 137 
192 154 181 194 150 180 200 153 186 171 139 159 145 131 137 
197 157 187 148 146 143 97 102 86 192 153 181 145 125 135 
1 1 1 55 70 37 84 97 75 73 84 58 84 93 70 
91 106 78 167 143 156 171 140 159 74 85 62 72 84 57 
76 85 60 90 97 80 83 91 68 75 85 58 35 55 1 
151 156 143 91 104 82 76 64 59 193 149 182 208 198 203 
135 143 129 1 21 1 167 133 153 201 154 187 192 146 178 
203 167 192 192 188 187 24 56 1 80 89 67 69 79 47 
93 101 80 171 176 167 134 141 125 148 153 142 121 126 112 
181 184 175 103 109 94 129 136 119 124 131 113 67 78 48 
127 132 119 195 199 190 127 136 123 73 82 58 47 64 22 
1 1 1 145 150 135 129 136 121 135 141 129 200 203 196 
164 168 159 98 105 84 86 95 75 79 89 68 181 146 167 
196 151 181 201 155 188 160 127 147 181 167 173 193 154 184 
153 156 148 142 147 133 176 131 164 223 210 220 186 192 183 
1 33 1 105 112 97 133 137 127 59 70 37 83 97 68 
182 164 175 167 138 156 67 78 52 80 90 65 37 54 1 
169 173 161 168 173 159 1 27 1 191 194 186 160 165 155 
37 71 1 160 153 152 201 157 191 135 105 121 118 131 114 
114 120 106 178 141 164 200 155 186 192 143 178 210 184 201 
232 235 232 90 99 78 68 81 52 73 83 55 29 56 1 
26 54 1 132 138 126 1 29 1 97 109 89 121 129 113 
68 80 51 107 115 96 96 104 85 76 86 64 113 122 103 
74 85 53 53 70 32 49 64 24 167 171 163 179 183 174 
83 94 67 105 113 93 75 85 59 37 57 1 67 80 49 
155 160 150 160 165 155 125 136 117 171 142 159 199 153 186 
196 147 181 183 164 175 163 149 155 206 168 195 187 188 184 
120 122 111 189 146 176 185 168 178 230 233 230 185 187 182 
223 223 222 234 234 233 49 64 22 1 35 1 149 125 137 
159 132 147 100 107 88 69 80 49 76 86 59 77 87 59 
88 97 74 1 29 1 197 200 193 203 205 201 68 90 54 
166 156 158 199 152 187 187 155 176 245 247 245 193 193 191 
174 129 158 200 155 187 194 150 182 127 113 114 110 122 104 
83 90 70 69 80 50 97 105 86 112 119 103 173 178 168 
204 208 201 70 81 52 170 175 165 147 153 141 115 122 104 
1 1 1 195 199 193 193 196 190 1 48 1 215 217 211 
177 180 172 34 56 1 140 144 133 207 208 202 68 80 52 
45 62 3 53 68 30 114 121 105 90 99 76 101 107 93 
180 184 175 1 43 1 143 122 131 200 155 186 196 147 182 
174 157 165 160 145 150 200 160 187 73 82 59 84 74 67 
202 163 191 116 99 103 136 145 131 240 240 238 245 246 246 
236 235 235 158 163 151 171 177 167 165 146 155 155 132 147 
92 99 81 70 81 52 76 86 60 78 87 61 75 86 59 
60 74 37 106 116 97 176 179 172 80 99 73 124 102 112 
202 157 190 181 134 168 193 191 188 196 192 189 183 135 168 
199 153 185 191 153 180 126 129 116 58 71 31 77 87 62 
56 69 26 116 124 109 228 231 224 118 124 108 1 1 1 
181 183 176 228 229 225 1 1 1 62 75 39 142 145 136 
225 227 221 147 152 143 17 51 1 241 242 239 233 234 231 
52 71 26 1 38 1 84 94 70 197 200 195 206 208 203 
147 150 141 1 22 1 151 156 144 169 174 161 23 45 1 
74 91 60 118 108 108 193 150 179 202 156 189 143 119 132 
116 96 100 208 170 197 207 210 205 160 150 153 196 152 183 
167 159 159 76 93 63 1 1 1 173 175 170 213 215 208 
29 49 1 138 145 132 157 132 143 178 152 168 103 109 96 
66 77 46 79 88 62 108 116 94 71 84 57 74 86 60 
69 81 55 111 117 102 85 102 75 150 130 138 198 156 187 
200 160 190 129 112 116 110 104 98 198 154 185 198 151 184 
176 147 165 135 142 127 81 90 67 66 80 52 93 101 79 
80 90 67 141 147 136 123 129 117 194 197 190 230 231 228 
212 213 209 184 186 178 220 221 218 235 237 233 152 155 147 
61 73 44 49 63 1 153 156 147 192 195 190 97 107 88 
167 172 163 71 85 58 171 174 167 158 162 152 210 211 206 
231 233 228 194 196 189 96 103 83 22 47 1 141 147 132 
199 200 195 196 163 187 201 152 187 150 127 139 151 138 143 
197 156 186 178 181 175 157 137 148 192 149 177 84 80 61 
37 61 1 89 98 81 209 210 203 93 101 79 85 95 70 
70 86 64 156 134 146 154 133 143 130 136 123 52 68 26 
78 88 63 72 83 56 77 87 62 54 70 31 117 122 107 
208 211 204 115 129 109 136 110 124 197 157 186 190 153 182 
166 132 155 134 116 123 199 154 185 199 153 186 154 127 141 
63 87 48 76 85 59 67 80 48 91 100 81 85 94 71 
18 45 1 218 220 215 181 184 178 26 53 1 1 1 1 
164 168 159 205 207 202 83 95 74 140 146 133 96 104 84 
61 74 41 91 101 78 67 81 52 162 167 156 220 223 218 
87 97 77 106 114 95 1 40 1 216 218 215 225 226 224 
1 14 1 91 99 78 111 117 100 1 1 1 97 106 89 
182 153 173 201 152 189 168 137 155 174 155 165 197 158 185 
84 98 73 155 125 142 199 163 187 148 153 140 96 105 85 
159 163 154 247 248 246 149 152 143 107 115 95 231 232 232 
207 178 198 202 182 196 64 77 50 73 86 59 71 85 58 
73 85 58 71 81 52 85 93 70 129 135 121 36 58 1 
42 76 7 159 130 147 183 144 172 176 151 168 191 151 179 
172 141 161 196 152 183 201 156 187 148 116 133 176 183 173 
245 245 243 139 143 132 1 34 1 106 113 97 186 189 179 
158 162 153 92 102 83 148 153 142 210 212 207 106 113 95 
61 77 39 1 42 1 229 231 226 205 208 202 1 1 1 
194 197 192 173 177 168 1 1 1 84 93 71 168 173 161 
111 118 101 1 24 1 202 204 199 186 189 183 1 1 1 
216 218 212 239 239 237 160 167 157 65 80 50 175 140 164 
199 155 190 183 150 173 163 134 154 192 156 182 159 164 151 
194 168 186 184 150 174 119 129 113 109 115 99 244 244 241 
255 255 255 187 189 183 151 160 146 211 190 204 176 143 166 
74 89 60 74 85 62 72 85 57 71 84 57 79 90 65 
73 84 56 94 102 80 213 216 210 159 162 155 1 4 1 
163 129 150 204 173 195 203 193 199 190 145 178 195 153 184 
194 150 181 200 154 187 161 134 149 59 81 45 207 209 203 
183 186 178 1 1 1 159 164 154 198 202 197 126 133 120 
103 112 96 105 112 97 152 156 147 78 87 62 84 94 73 
105 114 94 110 114 100 117 123 110 54 72 33 210 212 208 
182 185 178 31 53 1 83 93 71 134 141 127 24 49 1 
58 75 43 130 134 120 124 129 115 1 1 1 214 215 211 
247 248 246 198 203 196 167 171 163 182 148 172 197 153 186 
189 150 177 187 144 173 184 146 172 67 86 46 180 147 170 
173 139 159 1 53 1 80 90 67 229 229 226 240 240 240 
72 87 58 196 190 192 195 158 184 115 98 104 92 107 80 
72 83 60 71 84 56 68 82 54 72 85 59 73 86 61 
76 88 62 46 63 19 222 224 219 160 166 156 156 119 144 
198 167 188 149 145 140 189 145 175 197 152 183 194 149 180 
199 153 186 169 138 157 1 49 1 76 86 58 156 162 150 
76 86 59 86 96 74 191 193 186 184 186 179 185 189 180 
127 134 120 101 109 88 75 85 58 118 124 108 180 185 173 
93 102 81 66 77 49 72 83 58 55 71 33 218 220 214 
182 185 177 5 47 1 135 142 126 194 197 191 154 158 150 
16 44 0 71 82 56 57 70 36 209 210 204 175 179 170 
109 115 100 179 181 174 173 133 159 199 153 185 193 149 179 
200 153 186 182 145 168 91 97 78 188 149 175 158 129 145 
82 97 70 1 15 1 146 151 140 229 231 227 5 56 0 
173 140 161 187 146 175 127 133 118 108 118 99 71 82 58 
76 88 62 81 92 69 78 90 64 82 94 68 29 54 1 
119 127 110 149 152 142 151 160 146 166 131 154 169 135 158 
39 54 1 189 148 176 197 152 183 194 150 181 197 151 183 
185 151 175 111 118 104 97 105 86 85 93 71 82 93 67 
55 68 33 99 108 84 8 49 1 137 144 132 77 86 60 
123 130 114 150 157 143 122 127 114 89 97 79 87 97 74 
118 126 107 86 93 75 213 215 210 193 195 189 97 104 85 
55 72 37 106 114 96 166 171 162 114 120 106 139 144 134 
224 226 220 210 211 206 176 180 172 1 5 1 186 189 180 
221 219 217 190 150 178 195 149 182 193 149 181 199 153 186 
174 141 161 141 118 127 207 163 192 168 154 162 59 79 31 
191 193 187 224 224 222 235 238 232 129 115 117 199 156 187 
139 116 126 183 188 179 160 162 155 68 80 55 82 93 70 
104 111 94 57 70 35 54 68 22 152 157 150 245 246 243 
103 108 93 1 28 1 173 141 161 174 140 161 141 145 135 
195 159 184 195 149 181 195 151 182 196 150 182 191 156 180 
174 176 168 228 229 224 221 224 219 1 1 1 194 197 190 
229 230 227 220 221 216 159 163 154 23 50 1 49 67 25 
118 126 109 233 235 232 176 181 174 54 71 28 33 53 0 
129 134 119 155 159 148 1 1 1 105 113 94 101 109 90 
1 38 1 55 74 28 86 96 76 211 213 209 129 134 123 
99 107 89 56 69 36 195 196 190 90 99 81 146 142 138 
194 152 181 195 149 182 192 150 181 194 152 185 185 149 175 
192 152 181 191 151 176 120 122 111 164 168 160 254 254 254 
226 228 224 151 155 145 184 148 173 185 147 175 228 227 226 
255 255 255 208 209 204 74 85 62 73 85 58 59 71 35 
133 139 125 210 213 207 207 209 204 237 238 237 193 197 191 
93 107 82 195 170 185 201 165 190 238 238 236 194 162 183 
195 147 180 195 151 182 197 151 183 194 151 179 97 93 84 
172 175 166 166 169 161 102 112 92 189 192 183 151 152 146 
172 174 166 147 152 140 45 64 14 87 98 78 84 94 69 
159 162 151 132 139 126 89 100 78 123 130 113 117 122 109 
207 209 205 147 153 144 67 78 47 114 121 104 221 224 220 
198 202 196 66 77 50 236 237 234 148 153 142 1 31 1 
90 100 79 230 231 228 100 111 92 117 101 105 199 155 186 
194 149 180 198 161 189 193 153 183 194 151 184 197 152 186 
143 129 132 1 1 1 195 197 192 207 208 202 1 45 1 
139 134 131 187 143 176 204 184 199 253 255 253 177 180 175 
115 122 104 67 80 56 74 86 59 72 83 54 107 115 96 
131 137 123 31 50 1 67 78 51 151 156 145 77 97 68 
161 135 149 210 177 202 170 176 167 151 123 139 202 156 189 
195 149 182 195 150 181 198 152 184 171 155 160 70 92 54 
1 37 1 89 98 76 56 68 20 17 50 1 62 79 44 
75 86 60 66 77 46 137 144 129 96 105 83 130 136 121 
1 12 1 79 92 65 127 132 119 196 199 193 255 255 254 
255 255 255 146 150 139 75 87 63 220 224 218 154 158 149 
45 64 6 220 222 215 121 127 113 74 85 55 83 95 72 
190 193 185 94 107 85 149 125 138 200 155 187 193 149 179 
204 174 196 193 154 182 197 151 184 163 132 151 129 138 121 
160 165 154 45 59 3 1 1 1 155 159 152 220 197 213 
196 145 179 167 156 161 141 149 136 84 94 70 10 41 1 
92 102 83 65 79 49 92 101 78 69 80 51 47 61 3 
81 91 66 66 77 47 47 59 4 73 96 62 156 129 145 
186 146 175 38 68 1 126 109 115 197 154 187 195 150 182 
195 150 181 196 151 185 187 147 175 106 99 93 74 89 65 
143 148 138 148 154 142 81 92 68 26 54 1 59 73 37 
77 87 61 86 95 70 1 42 1 208 210 206 218 219 214 
90 99 80 27 52 1 75 87 61 106 112 95 164 167 159 
131 136 124 61 77 45 53 70 21 28 54 1 103 114 93 
105 114 98 164 168 160 89 97 77 141 147 131 116 127 107 
113 118 108 198 170 190 195 148 181 195 152 182 198 158 185 
188 143 177 213 183 205 184 182 179 26 56 1 184 188 180 
169 174 163 178 182 177 188 164 179 197 151 184 162 135 149 
59 78 38 1 38 1 87 96 75 144 151 136 80 91 68 
69 83 55 79 91 67 66 79 50 126 133 118 147 154 140 
102 109 92 91 99 79 48 78 18 155 130 145 195 154 184 
110 115 100 161 157 155 195 155 186 194 150 182 195 151 181 
194 150 181 203 158 191 142 113 127 177 184 175 208 210 203 
112 121 104 159 163 153 193 195 190 109 115 100 67 79 49 
84 94 69 80 93 67 238 238 236 255 255 255 215 216 211 
135 142 127 72 84 51 105 113 95 124 131 116 53 67 20 
88 97 73 77 87 64 104 112 95 59 72 32 144 150 140 
254 255 252 112 120 105 97 107 87 1 21 1 146 140 137 
199 160 189 193 156 183 194 152 183 193 152 184 184 136 173 
226 207 222 213 216 209 75 85 57 1 1 1 157 157 151 
225 207 220 189 140 174 160 131 147 27 62 3 141 148 133 
121 126 111 39 61 10 140 147 131 100 108 93 67 81 51 
73 86 60 72 84 57 82 91 68 49 63 18 160 166 153 
139 144 131 1 52 1 138 122 126 195 150 182 174 164 168 
184 187 181 189 150 178 196 151 184 195 151 182 195 150 182 
197 151 182 186 147 173 205 203 202 73 89 59 1 27 1 
154 157 150 221 222 218 149 152 140 76 84 52 61 74 40 
96 106 86 232 233 229 250 250 249 174 176 168 83 94 66 
72 84 52 174 177 169 172 176 167 61 74 37 111 119 98 
93 101 82 133 140 123 66 78 45 144 149 137 138 144 133 
55 71 34 158 162 154 177 181 175 156 127 144 198 152 185 
186 146 173 194 152 183 193 155 186 189 144 179 186 173 180 
205 210 201 48 73 32 167 164 162 185 150 176 196 146 183 
203 185 196 117 123 111 84 95 73 102 110 94 236 237 234 
210 213 207 55 72 35 148 153 144 53 67 25 82 91 66 
71 82 53 72 83 56 76 88 62 71 84 57 71 82 57 
64 81 48 102 99 90 192 152 180 202 166 193 72 78 56 
148 123 137 200 155 188 195 149 181 194 151 181 190 149 176 
201 156 191 191 156 184 136 129 127 163 169 159 145 155 141 
1 1 1 95 105 84 180 184 174 49 68 27 76 85 59 
84 93 70 110 117 104 191 194 190 47 62 16 97 106 86 
232 232 229 135 139 127 1 20 1 72 85 60 101 109 89 
60 71 41 136 142 129 94 106 83 42 63 1 55 69 32 
121 132 117 230 221 228 195 151 183 195 150 181 195 150 181 
196 152 183 197 159 188 189 150 178 99 98 88 117 112 104 
165 137 155 205 164 194 199 155 186 146 125 135 153 159 148 
200 203 196 154 159 147 156 162 148 142 146 136 150 154 143 
127 134 120 65 74 48 38 56 1 147 152 140 168 173 162 
1 42 1 95 106 84 79 90 65 69 82 55 74 84 60 
52 78 28 149 130 139 200 155 190 171 138 158 99 95 87 
190 149 176 197 151 182 196 152 183 167 139 157 154 129 141 
197 149 183 194 153 184 174 143 163 151 126 139 135 122 125 
98 93 86 163 167 159 194 198 189 49 67 9 76 88 61 
28 53 1 201 204 198 160 164 155 30 60 1 231 231 229 
247 247 246 165 171 160 63 78 46 110 118 98 116 122 110 
179 184 178 89 100 77 72 83 58 55 75 35 98 96 87 
182 142 170 196 150 183 195 151 181 195 151 182 195 150 181 
196 151 183 192 151 181 188 148 173 194 151 183 198 155 188 
171 139 160 113 105 99 53 76 33 132 139 122 97 108 87 
53 70 35 64 78 47 31 54 1 52 66 21 94 103 83 
82 92 71 66 79 48 98 106 90 144 149 136 89 100 76 
66 80 52 86 95 74 78 87 66 87 95 76 30 55 1 
148 152 144 201 179 193 200 151 186 157 131 142 153 129 141 
204 158 192 195 150 183 194 153 181 115 108 103 153 132 140 
199 157 189 196 153 187 195 153 185 195 155 184 193 152 181 
179 140 166 219 200 213 199 194 195 112 124 105 56 77 36 
107 115 96 137 142 129 31 50 1 175 177 169 238 239 236 
139 144 134 60 73 35 64 74 41 133 138 125 169 173 164 
54 70 34 192 198 188 96 96 86 180 147 172 198 154 185 
193 151 182 193 151 184 195 150 181 197 151 182 195 153 183 
182 148 171 159 130 149 184 169 178 131 127 122 1 42 1 
1 1 1 140 143 132 179 182 173 40 61 1 92 101 80 
107 116 95 82 91 67 207 209 203 169 175 163 76 86 64 
77 89 63 61 73 41 67 78 48 79 90 66 80 92 68 
99 108 87 103 111 94 147 154 140 49 61 1 210 213 206 
137 143 133 170 130 157 200 158 187 123 113 112 155 127 143 
196 151 183 197 151 185 194 150 182 188 157 178 189 152 178 
193 151 183 181 142 169 188 159 180 197 167 190 193 148 178 
189 139 176 204 169 194 163 136 153 186 177 180 140 142 134 
1 38 1 69 86 57 1 57 1 30 63 1 63 78 44 
81 91 66 73 88 56 46 70 3 155 162 149 200 203 198 
228 220 226 198 166 189 193 150 182 193 152 183 192 151 182 
192 151 183 194 150 181 200 153 186 158 127 145 1 1 1 
100 112 92 122 132 116 107 116 97 208 209 205 217 218 216 
255 255 253 203 206 199 97 106 84 87 95 74 97 106 82 
104 111 95 210 212 204 66 76 47 75 84 60 67 78 48 
85 94 70 89 98 74 66 79 50 73 86 60 68 81 54 
69 82 54 80 92 69 10 47 0 212 213 209 236 239 235 
122 122 115 193 150 182 181 144 172 143 141 138 195 163 187 
192 149 182 194 152 183 197 150 182 194 149 180 195 151 183 
196 151 181 190 150 177 187 149 177 192 149 179 194 151 184 
198 150 184 202 154 188 204 160 192 197 155 185 177 140 164 
165 135 153 173 142 161 141 119 129 117 120 107 88 94 77 
142 142 133 123 118 113 178 162 171 220 194 212 190 142 176 
195 148 181 193 151 183 193 152 184 193 150 181 195 150 181 
195 151 183 195 152 184 131 126 122 134 142 130 215 217 213 
115 122 108 64 79 53 222 222 220 253 254 252 184 189 183 
117 125 109 125 132 117 59 71 39 70 83 56 85 95 74 
143 148 135 120 126 111 73 82 57 85 95 69 90 99 76 
79 89 63 72 84 57 72 85 58 73 85 59 71 84 57 
83 95 71 27 54 1 159 162 153 255 255 254 119 132 114 
133 110 122 204 157 192 203 175 196 175 152 165 194 149 180 
195 151 180 195 151 182 196 151 182 196 150 182 193 151 181 
162 132 149 185 164 177 207 183 200 201 187 196 149 129 137 
152 127 140 161 132 148 173 137 161 187 148 176 194 151 181 
199 154 187 198 153 186 192 150 179 183 146 170 195 161 185 
196 155 186 193 147 183 189 141 178 196 152 182 195 151 181 
193 151 183 192 151 181 195 151 182 195 150 181 196 153 185 
183 141 169 218 217 213 215 217 212 180 182 178 40 61 5 
143 151 137 123 132 118 37 64 1 123 129 115 140 145 132 
52 65 26 71 83 58 73 86 60 77 88 63 46 61 10 
79 88 65 24 46 1 162 165 154 137 143 129 50 69 27 
75 88 64 71 84 57 71 84 57 72 84 57 75 86 60 
62 76 42 86 94 73 190 193 185 78 89 65 66 80 50 
159 133 145 199 151 184 176 140 165 192 147 178 195 149 183 
196 150 181 193 150 180 194 150 181 196 151 182 197 152 183 
196 153 184 193 153 182 188 156 175 170 138 156 172 138 158 
177 142 163 177 142 165 181 145 170 188 147 174 194 151 181 
194 150 181 197 150 183 198 152 184 191 149 182 191 148 180 
195 152 183 196 152 183 195 151 181 195 150 181 193 150 181 
192 148 177 197 152 186 184 146 174 188 148 175 184 145 173 
230 231 229 127 133 120 1 1 1 58 75 43 61 73 42 
126 133 118 96 108 90 158 162 153 166 170 158 26 49 1 
86 95 73 103 111 92 114 122 103 92 101 77 69 81 52 
96 105 84 240 241 236 224 226 221 59 74 32 71 84 58 
78 90 65 76 89 63 68 81 53 108 115 95 66 78 39 
200 202 197 213 214 210 9 41 1 77 89 61 52 63 13 
177 136 163 198 154 188 201 167 190 186 155 176 193 154 183 
201 157 188 200 154 186 196 151 182 194 150 181 198 151 183 
199 152 184 197 149 182 200 153 185 201 154 187 203 156 189 
204 155 189 203 155 188 198 151 184 192 143 177 198 150 183 
196 151 182 194 150 181 193 152 184 196 154 186 195 147 180 
196 150 182 195 151 182 197 151 183 200 153 186 201 156 187 
193 150 179 190 148 180 196 152 183 182 150 173 215 217 211 
114 120 107 119 126 112 155 160 148 186 191 182 117 124 108 
183 188 180 169 176 165 57 72 35 102 109 92 95 103 85 
103 111 92 94 103 81 81 91 65 73 84 58 0 38 0 
160 164 155 199 202 195 133 139 126 65 78 51 74 87 61 
75 87 61 65 79 50 122 129 110 65 78 37 199 200 196 
252 253 251 108 115 97 41 59 1 159 166 153 200 188 194 
193 145 180 194 165 185 103 105 93 118 120 108 136 125 126 
153 127 141 194 153 181 199 153 186 183 142 170 178 142 164 
194 152 183 194 151 183 187 147 175 171 138 157 167 137 156 
171 138 159 187 151 176 206 176 199 186 151 176 190 148 180 
195 152 184 191 149 179 181 141 169 199 160 185 190 151 180 
194 151 183 188 148 174 173 141 160 141 114 129 122 116 112 
124 124 113 178 142 167 168 137 156 14 55 0 75 84 56 
203 207 197 126 132 118 148 154 143 135 141 129 146 151 141 
1 1 1 146 151 140 228 231 226 97 105 89 61 74 43 
103 113 92 69 81 53 68 81 53 179 181 173 158 162 151 
79 90 61 140 146 132 62 75 46 74 87 60 72 85 58 
71 83 56 78 88 63 68 79 49 85 94 72 151 156 146 
99 108 91 1 36 1 191 193 186 255 255 255 188 166 180 
186 133 171 188 148 176 141 121 130 74 85 63 12 69 1 
110 105 98 188 150 177 190 149 177 167 138 155 187 149 177 
193 152 185 190 151 181 162 134 153 122 113 114 73 74 54 
167 168 162 232 228 230 169 145 161 189 148 179 196 153 184 
185 151 173 157 149 150 211 198 206 181 153 172 196 151 183 
140 124 130 1 28 1 150 157 145 193 201 189 102 112 93 
193 152 182 156 121 142 161 170 156 136 142 129 135 140 125 
77 89 65 64 77 45 90 97 77 191 194 185 182 186 177 
251 251 248 201 203 199 7 48 1 79 91 68 70 83 57 
72 85 59 94 102 82 230 231 227 255 255 255 162 165 156 
94 102 84 84 95 74 67 81 52 72 85 58 70 83 56 
88 98 76 89 97 76 78 88 62 1 15 1 113 121 103 
85 95 72 129 134 122 253 254 251 252 251 252 226 210 221 
178 136 165 201 156 189 194 153 184 170 135 158 156 122 144 
183 144 172 198 154 187 198 154 185 195 151 183 194 151 183 
194 148 182 199 154 187 199 154 187 192 150 177 187 150 175 
192 151 179 198 153 186 197 153 187 195 151 185 196 156 187 
201 165 190 191 150 182 193 151 183 192 155 181 115 108 103 
95 109 86 127 127 118 153 140 142 177 138 163 205 163 195 
123 103 114 130 141 124 122 129 113 1 1 1 78 88 66 
222 223 218 157 162 152 114 120 105 143 147 137 232 233 230 
202 204 200 1 27 1 81 92 69 76 87 61 47 63 14 
61 75 36 20 49 1 212 213 210 255 255 255 189 193 186 
69 82 54 88 100 76 80 92 67 59 74 42 107 114 96 
99 107 87 73 83 58 125 131 116 107 114 98 88 96 76 
49 67 18 178 180 174 233 234 232 215 218 213 221 220 218 
194 180 188 165 130 151 200 172 190 210 182 204 190 154 181 
192 149 178 194 151 181 194 151 181 194 152 181 200 160 188 
194 151 181 193 151 181 188 150 176 182 146 170 186 149 174 
187 150 175 187 149 175 190 150 178 196 152 183 198 151 184 
199 156 190 199 157 190 194 153 183 175 131 158 179 137 166 
180 136 167 197 152 183 198 155 184 145 116 132 112 118 102 
84 94 68 37 55 1 118 125 109 97 105 85 172 176 166 
90 99 80 77 88 62 60 72 36 94 103 84 208 210 204 
84 93 71 69 82 54 62 75 41 137 143 129 174 178 170 
195 197 192 157 162 153 166 172 166 120 129 115 48 65 14 
86 97 74 70 81 52 94 102 81 169 174 162 76 85 61 
81 92 67 149 156 143 78 88 68 59 73 41 110 119 101 
173 177 166 48 67 10 143 147 137 226 227 223 68 85 55 
103 116 91 106 114 96 210 214 207 106 106 95 111 105 97 
109 102 97 100 94 87 123 118 115 182 179 176 110 105 98 
98 93 86 91 92 77 78 87 61 76 81 57 92 94 76 
103 104 90 104 102 93 131 120 119 124 104 110 130 109 120 
144 121 133 183 162 174 223 206 219 208 189 202 196 178 188 
146 129 134 88 85 74 147 152 140 191 194 186 156 160 149 
74 86 60 157 165 153 85 97 75 38 61 1 39 59 1 
131 135 121 113 121 104 75 87 59 250 250 248 209 211 206 
1 33 1 75 87 64 105 114 96 189 191 186 247 247 245 
182 187 179 66 79 54 58 72 33 77 89 64 54 70 34 
67 78 48 71 81 50 177 182 172 171 176 165 53 68 28 
47 66 22 69 83 54 76 89 63 62 76 43 158 160 150 
184 187 179 109 117 100 86 96 74 48 61 11 100 107 88 
72 83 55 149 155 142 54 70 25 155 163 148 78 92 66 
64 81 47 71 85 58 62 79 42 59 77 36 89 101 76 
76 88 60 70 82 53 119 127 111 75 86 62 71 86 58 
9 52 1 149 156 146 237 240 236 172 179 169 1 26 1 
146 155 144 254 255 253 253 255 253 189 194 185 45 72 1 
68 81 50 141 146 134 79 89 70 221 223 215 123 129 114 
151 157 146 158 163 154 81 90 63 104 111 90 99 108 88 
158 163 152 182 185 179 255 255 255 255 255 255 165 168 157 
60 75 43 1 1 1 132 137 124 138 142 131 161 166 155 
255 255 254 215 216 211 64 78 45 135 141 126 105 112 95 
70 81 54 79 90 63 88 99 78 74 85 60 89 98 77 
77 88 64 76 89 64 25 51 1 210 212 206 210 211 207 
1 1 1 115 121 107 175 180 172 89 100 74 113 122 103 
17 44 1 81 89 66 115 121 106 78 86 62 54 67 23 
30 52 1 52 66 9 62 72 41 161 166 150 113 120 102 
58 70 36 159 164 152 93 100 84 80 90 66 52 67 18 
170 173 164 254 254 251 207 208 202 53 69 27 157 161 150 
99 103 86 161 164 151 100 106 91 54 66 28 79 90 65 
72 84 53 67 81 50 90 99 79 31 55 1 165 171 161 
190 193 187 56 69 32 103 113 91 86 97 76 206 209 203 
252 253 251 255 255 255 218 219 216 119 125 111 1 37 1 
109 116 101 194 195 189 159 164 153 134 141 124 165 168 159 
227 230 226 90 101 80 144 147 134 116 122 106 64 76 44 
179 183 173 117 125 111 78 89 64 125 132 115 73 84 60 
75 88 62 1 1 1 161 164 155 168 171 161 43 61 1 
102 109 90 172 175 166 173 176 168 234 237 230 140 145 133 
57 70 28 34 53 1 62 76 43 130 136 124 161 164 156 
154 159 147 65 77 44 41 57 1 53 66 16 71 82 53 
139 145 131 52 66 24 22 48 1 8 43 1 32 57 1 
77 88 64 201 202 196 76 87 61 98 107 85 61 75 41 
43 60 1 140 147 130 83 94 70 63 78 48 122 129 109 
84 91 68 113 121 99 73 83 55 82 92 67 44 60 1 
71 83 57 74 87 60 77 88 61 31 51 1 130 136 125 
217 218 213 206 207 203 93 100 81 207 210 203 203 206 199 
210 213 208 76 84 60 79 90 68 80 90 66 66 81 48 
48 66 15 160 164 156 172 176 169 101 109 90 241 243 239 
163 166 157 24 48 1 126 133 119 87 96 76 76 88 60 
150 155 144 175 178 170 142 146 134 127 133 118 115 122 106 
116 123 109 197 199 193 180 182 178 203 206 197 57 73 31 
127 131 119 189 192 186 249 251 248 246 248 246 175 179 169 
44 60 1 157 162 153 135 141 131 25 54 1 178 181 173 
223 225 222 222 224 219 188 190 185 143 146 136 183 186 180 
210 213 208 1 34 1 118 123 111 213 216 210 176 179 171 
117 124 108 66 81 50 88 99 76 70 83 55 72 85 58 
74 86 60 74 86 59 95 104 81 80 89 64 73 85 58 
74 87 61 86 95 72 93 101 80 31 54 1 144 149 136 
211 214 208 219 221 216 255 255 255 160 164 155 23 56 1 
213 215 210 176 181 172 246 247 244 120 126 112 24 47 0 
121 129 115 158 163 154 88 97 74 101 110 91 64 77 44 
65 77 47 120 127 112 93 101 81 73 83 53 181 186 177 
173 178 168 0 18 0 130 136 123 133 139 126 18 50 1 
1 22 1 32 53 1 179 182 173 70 84 59 224 227 224 
225 227 222 130 135 122 133 141 126 74 85 59 31 51 1 
176 180 173 184 189 182 0 47 0 168 170 162 245 246 244 
213 215 213 205 207 203 199 201 195 179 182 174 103 110 96 
86 95 72 152 158 146 95 102 87 193 197 189 123 131 116 
38 61 1 93 104 82 64 79 48 62 77 46 73 86 60 
72 86 59 107 116 94 75 85 58 68 80 51 64 78 48 
82 92 67 86 95 70 116 123 106 156 162 147 0 39 0 
124 128 117 208 210 204 73 85 57 167 170 160 236 236 233 
135 140 126 176 179 172 120 127 115 59 71 33 129 134 119 
88 96 77 72 82 54 69 82 53 72 86 59 74 87 59 
59 73 39 70 82 55 75 87 60 1 32 1 55 72 34 
100 109 89 53 66 20 62 75 44 81 92 70 80 91 67 
84 94 72 70 80 56 104 113 94 142 149 136 1 3 1 
53 70 28 83 96 71 77 89 65 87 95 73 65 76 44 
49 65 18 1 28 1 185 188 181 201 203 198 1 1 1 
45 65 1 1 1 1 94 104 82 155 160 150 94 103 85 
62 78 43 46 65 13 50 68 29 79 92 68 73 85 58 
57 72 39 109 117 100 100 109 91 53 68 25 72 84 57 
83 90 68 74 85 59 97 107 87 99 107 88 63 75 47 
106 114 96 100 108 89 107 114 97 76 88 63 150 154 142 
222 224 219 80 92 66 198 201 195 239 240 236 61 74 43 
12 49 1 77 88 61 16 46 1 54 67 21 57 70 30 
68 79 49 76 87 62 63 78 47 70 84 56 69 83 54 
63 78 46 70 83 54 61 73 38 126 133 117 111 119 101 
71 81 52 66 80 45 53 71 31 74 87 61 71 85 57 
69 80 52 85 93 72 84 94 71 74 87 60 77 89 65 
75 87 62 59 73 35 107 114 97 154 160 148 49 68 26 
118 125 110 230 232 227 200 205 200 167 173 163 126 132 113 
187 188 179 229 229 225 255 255 255 138 143 132 49 68 14 
85 96 74 86 98 74 69 82 54 75 88 62 54 70 34 
131 138 122 105 112 95 144 150 135 99 107 86 161 165 155 
96 106 87 92 102 82 137 143 127 78 87 62 153 160 144 
95 103 83 130 137 121 99 110 92 90 98 75 229 230 226 
183 187 180 150 153 142 194 196 192 127 133 120 86 94 71 
215 217 210 178 180 174 201 203 197 180 183 175 81 90 67 
65 77 48 116 124 107 82 92 68 92 101 83 101 109 93 
97 106 88 106 113 97 123 129 114 116 122 108 73 84 58 
162 166 156 112 120 106 62 75 45 73 84 60 101 108 90 
76 85 63 77 88 66 75 86 62 73 84 60 71 82 57 
86 95 74 75 84 60 74 84 60 1 45 1 186 188 182 
224 225 220 1 1 1 86 96 75 74 84 58 92 100 82 
99 106 92 121 126 114 88 98 78 76 88 63 77 88 64 
89 100 77 73 84 59 72 84 58 75 86 63 60 72 39 
58 69 33 152 158 146 94 102 84 165 169 161 84 94 73 
96 103 86 70 79 57 65 77 45 90 98 79 102 110 92 
72 81 57 81 91 70 25 49 1 129 132 120 227 229 225 
232 233 229 