P3
64 64
255
140 105 124
112 81 95
140 100 128
94 74 78
66 66 43
57 61 37
62 69 45
68 82 55
68 74 55
175 119 149
210 165 198
178 135 167
190 152 184
104 84 94
112 88 100
110 98 96
111 105 98
79 96 50
106 135 77
77 96 58
66 73 56
77 96 58
55 66 45
53 63 40
55 66 45
66 73 56
66 73 56
77 96 58
187 141 179
170 130 162
144 106 134
117 80 105
104 84 94
72 74 35
86 97 51
69 80 42
77 96 58
152 125 143
118 95 104
138 99 120
115 71 95
122 83 101
72 74 35
86 97 51
69 80 42
77 96 58
69 80 42
77 96 58
77 96 58
77 96 58
68 82 55
68 74 55
64 72 45
71 86 51
103 119 85
85 97 61
197 158 185
175 119 149
210 165 198
86 103 63
162 157 146
146 131 118
153 126 144
213 173 207
143 102 130
125 89 107
109 73 92
116 127 100
77 96 58
66 73 56
68 74 55
205 171 203
214 177 209
208 161 194
217 174 211
217 176 215
191 158 186
167 132 162
117 80 105
104 84 94
72 74 35
86 97 51
76 95 56
77 96 58
66 73 56
77 96 58
66 73 56
53 63 40
70 78 52
88 93 66
117 80 105
68 82 55
174 134 160
139 92 119
126 84 111
140 100 128
94 74 78
66 66 43
57 61 37
62 69 45
68 82 55
68 74 55
64 72 45
139 96 130
124 80 111
121 83 114
62 69 45
57 61 37
86 97 51
86 97 51
69 80 42
86 97 51
69 80 42
77 96 58
66 73 56
66 73 56
64 72 45
68 74 55
145 126 135
205 171 203
214 177 209
208 161 194
217 174 211
217 176 215
191 158 186
207 175 204
113 99 95
186 156 179
152 125 143
118 95 104
76 55 60
76 95 56
77 96 58
68 74 55
66 73 56
146 131 118
153 126 144
213 173 207
140 105 124
166 126 153
130 92 110
112 81 95
184 146 173
72 74 35
86 97 51
69 80 42
77 96 58
52 52 36
55 49 43
100 77 89
124 83 114
174 132 162
55 66 45
126 84 111
140 100 128
93 116 78
146 101 136
148 107 134
145 106 133
120 89 107
68 53 47
63 61 43
58 66 40
100 120 87
93 116 78
71 86 51
103 119 85
85 97 61
139 92 119
126 84 111
140 100 128
86 93 57
126 146 105
106 124 76
96 101 66
76 92 45
69 80 42
77 96 58
66 73 56
68 74 55
64 72 45
86 103 63
162 157 146
146 131 118
153 126 144
213 173 207
140 105 124
166 126 153
117 121 98
130 121 114
86 86 66
169 147 161
65 62 45
52 52 36
55 49 43
77 96 58
66 73 56
53 63 40
75 91 52
106 124 76
152 139 142
207 175 204
113 99 95
186 156 179
143 102 130
125 89 107
109 73 92
73 87 48
116 127 100
56 60 46
50 54 36
45 47 35
63 62 49
67 52 55
135 107 125
112 82 99
107 70 92
155 110 142
97 68 85
58 67 41
74 86 52
158 125 151
171 137 161
105 81 89
54 47 39
60 62 43
52 55 34
63 69 53
58 67 41
74 86 52
91 114 68
113 135 86
145 106 133
145 106 133
145 106 133
86 89 63
64 82 43
100 121 70
111 105 98
79 96 50
106 135 77
76 95 56
54 56 42
68 74 55
139 92 119
86 93 57
126 146 105
106 124 76
152 139 142
207 175 204
113 99 95
186 156 179
75 91 52
60 66 44
79 84 67
75 77 68
50 54 36
45 47 35
62 69 45
68 82 55
151 127 137
96 101 66
76 92 45
73 87 48
116 127 100
130 121 114
86 86 66
169 147 161
152 125 143
116 127 100
76 55 60
50 54 36
76 95 56
54 56 42
68 70 54
70 78 52
88 93 66
64 62 49
48 43 37
98 75 87
155 115 149
134 91 121
153 111 145
96 86 73
85 94 60
97 68 85
107 77 100
180 153 176
80 71 63
64 66 41
58 53 41
99 93 93
55 61 38
68 75 45
84 87 63
131 126 110
97 68 85
107 77 100
119 138 93
149 114 137
110 104 88
99 123 75
72 74 35
86 97 51
69 80 42
77 96 58
66 73 56
146 101 136
170 130 162
144 106 134
64 82 43
100 121 70
117 121 98
130 121 114
73 87 48
169 147 161
76 92 45
73 87 48
116 127 100
56 60 46
68 70 54
70 78 52
130 94 124
112 88 100
110 98 96
111 105 98
79 96 50
106 135 77
106 135 77
60 66 44
79 84 67
75 77 68
65 62 45
76 95 56
55 49 43
68 70 54
77 96 58
66 73 56
53 63 40
55 66 45
89 98 65
80 83 60
50 51 35
84 72 73
152 119 143
103 67 91
190 144 187
57 54 32
79 85 57
115 87 109
112 82 105
138 114 132
79 66 62
74 73 49
90 92 86
158 137 156
61 52 43
74 70 56
137 115 130
79 85 57
116 112 87
107 77 100
174 168 159
83 95 55
140 100 128
94 74 78
66 66 43
57 61 37
62 69 45
68 82 55
68 74 55
189 149 188
158 125 151
126 84 111
110 104 88
99 123 75
75 91 52
60 66 44
106 135 77
75 77 68
65 62 45
106 135 77
76 95 56
54 56 42
66 73 56
53 63 40
144 106 134
117 80 105
104 84 94
72 74 35
76 92 45
73 87 48
106 135 77
73 87 48
116 127 100
56 60 46
50 54 36
45 47 35
63 62 49
67 52 55
68 82 55
68 74 55
64 72 45
68 69 50
99 114 76
79 74 60
44 47 33
53 41 46
147 119 141
123 83 110
206 160 204
188 143 178
77 59 56
116 112 87
201 170 201
144 131 134
57 52 24
51 49 25
134 128 127
184 157 184
111 83 101
194 150 192
213 168 207
77 59 56
116 112 87
127 121 90
174 168 159
83 95 55
120 89 107
68 53 47
63 61 43
58 66 40
100 120 87
93 116 78
71 86 51
56 39 41
121 83 114
126 146 105
151 127 137
96 101 66
76 92 45
73 87 48
116 127 100
56 60 46
50 54 36
69 80 42
77 96 58
66 73 56
68 74 55
64 72 45
126 84 111
140 100 128
86 97 51
96 101 66
79 96 50
106 135 77
76 95 56
106 135 77
76 95 56
54 56 42
68 70 54
70 78 52
88 93 66
64 62 49
93 116 78
71 86 51
103 119 85
85 97 61
154 155 142
187 164 183
99 83 81
153 140 149
220 186 222
176 139 168
191 142 178
217 176 205
225 190 222
216 181 207
175 130 153
177 134 156
72 51 39
80 65 72
184 142 172
179 134 165
203 161 200
217 170 212
197 158 189
218 179 216
199 156 195
214 171 210
180 142 167
105 96 75
105 81 89
54 47 39
60 62 43
52 55 34
154 155 142
187 164 183
56 39 41
86 89 63
112 84 96
194 160 192
100 121 70
117 121 98
79 96 50
106 135 77
76 95 56
54 56 42
68 70 54
66 73 56
68 82 55
68 82 55
68 74 55
148 107 134
123 88 106
126 84 111
104 84 94
110 104 88
79 96 50
106 135 77
60 66 44
77 96 58
77 96 58
66 73 56
53 63 40
53 63 40
89 98 65
80 83 60
58 67 41
74 86 52
91 114 68
113 135 86
145 131 132
215 182 221
155 137 148
108 95 93
201 163 202
210 167 202
209 176 202
200 166 192
153 115 140
169 134 156
189 150 174
199 163 188
209 176 202
199 154 194
201 151 185
182 133 163
198 153 192
182 136 172
126 88 113
214 178 212
224 184 217
201 170 201
105 96 75
107 77 100
180 153 176
80 71 63
64 66 41
58 53 41
145 131 132
215 182 221
87 67 72
175 142 169
203 159 188
97 68 77
99 123 75
75 91 52
60 66 44
79 84 67
77 96 58
66 73 56
52 52 36
100 77 89
68 82 55
68 74 55
136 101 119
191 153 183
136 101 119
151 127 137
64 82 43
100 121 70
86 97 51
76 92 45
73 87 48
116 127 100
56 60 46
50 54 36
64 72 45
64 72 45
99 114 76
79 74 60
55 61 38
68 75 45
84 87 63
131 126 110
140 127 129
201 174 204
182 155 177
180 151 171
194 150 192
213 168 207
181 133 157
199 160 188
190 152 182
208 167 202
209 176 206
167 133 160
162 133 153
213 171 207
178 128 167
206 169 195
175 139 164
189 141 180
188 145 177
201 157 194
213 172 205
180 142 167
105 96 75
112 82 105
138 114 132
79 66 62
74 73 49
90 92 86
140 127 129
201 174 204
112 84 96
194 160 192
149 114 137
151 127 137
96 101 66
76 92 45
73 87 48
116 127 100
56 60 46
50 54 36
45 47 35
63 62 49
135 107 125
64 72 45
136 101 119
115 71 95
122 83 101
117 80 105
111 105 98
99 123 75
111 105 98
79 96 50
106 135 77
76 95 56
54 56 42
68 70 54
70 78 52
88 93 66
154 155 142
187 164 183
61 52 43
74 70 56
137 115 130
157 120 151
175 143 166
184 142 172
179 134 165
203 161 200
217 170 212
197 158 189
218 179 216
107 92 99
157 132 148
209 176 209
206 168 201
177 132 169
195 151 180
191 152 182
188 143 181
201 169 194
159 122 144
191 139 179
182 136 174
213 165 206
221 182 219
199 156 195
214 171 210
201 170 201
144 131 134
57 52 24
51 49 25
134 128 127
175 143 166
221 179 207
203 159 188
97 68 77
112 88 100
110 98 96
111 105 98
79 96 50
106 135 77
76 95 56
54 56 42
68 70 54
70 78 52
88 93 66
139 92 119
115 71 95
124 80 111
121 83 114
121 83 114
149 114 137
151 127 137
96 101 66
72 74 35
86 97 51
69 80 42
77 96 58
66 73 56
53 63 40
55 66 45
89 98 65
80 83 60
215 182 221
215 182 221
145 123 135
203 177 198
209 176 202
199 154 194
201 151 185
182 133 163
198 153 192
182 136 172
126 88 113
214 178 212
210 184 206
118 88 102
175 149 171
157 119 147
176 127 166
174 119 148
176 125 159
185 138 171
170 141 158
155 117 140
217 170 205
197 158 193
227 184 223
202 156 193
224 176 218
182 156 178
182 156 178
72 51 39
80 65 72
177 134 156
193 154 185
217 173 212
226 177 213
198 149 183
78 50 55
117 80 105
104 84 94
72 74 35
86 97 51
69 80 42
77 96 58
66 73 56
53 63 40
55 66 45
89 98 65
146 101 136
115 71 95
121 83 114
130 94 124
130 94 124
112 88 100
110 98 96
111 105 98
79 96 50
57 61 37
62 69 45
68 82 55
68 74 55
68 74 55
64 72 45
99 114 76
79 74 60
201 174 204
201 174 204
182 155 177
181 149 171
162 133 153
213 171 207
178 128 167
206 169 195
175 139 164
189 141 180
188 145 177
199 164 198
172 129 158
154 106 137
154 106 137
172 129 158
154 106 137
209 161 195
160 109 141
143 95 123
129 107 113
120 94 103
188 145 176
222 187 218
226 186 220
207 156 190
188 129 167
206 157 196
152 125 146
145 119 139
189 150 174
199 163 188
194 154 187
212 164 202
196 147 175
127 72 102
203 159 188
140 100 128
94 74 78
66 66 43
57 61 37
62 69 45
68 82 55
68 74 55
64 72 45
68 69 50
99 114 76
140 96 125
124 80 111
201 159 193
130 105 113
144 106 134
117 80 105
104 84 94
72 74 35
86 97 51
69 80 42
77 96 58
93 116 78
71 86 51
112 82 99
107 70 92
155 110 142
189 134 175
202 153 189
184 142 172
175 149 171
157 119 147
195 151 180
191 152 182
188 143 181
201 169 194
159 122 144
191 139 179
182 136 174
202 166 202
198 156 193
176 128 168
176 128 168
203 152 192
203 152 192
195 150 187
172 123 155
158 107 143
185 151 171
125 83 109
178 131 166
180 131 167
195 149 185
187 137 170
168 116 146
214 174 208
179 134 170
208 167 202
209 176 206
167 133 160
201 161 195
211 172 205
143 96 124
147 96 123
154 119 135
120 89 107
68 53 47
63 61 43
58 66 40
100 120 87
93 116 78
71 86 51
103 119 85
155 115 149
112 64 91
155 99 136
163 113 150
189 140 176
74 58 52
126 84 111
117 80 105
104 84 94
72 74 35
86 97 51
69 80 42
77 96 58
64 62 49
48 43 37
98 75 87
155 115 149
134 91 121
153 111 145
212 175 211
153 117 141
199 164 198
172 129 158
154 106 137
160 108 141
154 102 133
189 136 180
155 117 140
217 170 205
216 181 207
200 160 192
206 170 204
209 173 205
219 172 204
195 151 180
191 152 182
188 143 181
196 153 182
151 106 136
184 143 167
163 115 149
198 157 192
192 151 187
204 166 201
202 161 196
213 175 208
153 124 144
128 89 111
209 176 209
206 168 201
177 132 169
188 143 179
187 143 178
178 133 167
196 147 175
171 137 161
105 81 89
54 47 39
60 62 43
52 55 34
63 69 53
58 67 41
74 86 52
91 114 68
113 135 86
114 83 96
158 125 151
189 134 177
180 131 162
68 52 47
121 83 114
149 114 137
151 127 137
96 101 66
66 73 56
53 63 40
89 98 65
80 83 60
50 51 35
84 72 73
152 119 143
103 67 91
190 144 187
221 176 223
203 146 191
197 134 180
198 156 193
176 128 168
158 106 140
166 117 149
179 134 170
137 99 127
169 134 156
189 150 174
204 158 196
223 179 214
179 138 170
194 144 179
174 119 148
176 125 159
185 138 171
170 141 158
129 85 108
146 102 121
197 156 183
177 135 168
162 125 156
215 182 212
180 142 174
209 176 208
207 175 198
124 83 102
175 149 171
157 119 147
176 127 166
173 123 162
167 120 153
141 96 129
129 91 116
57 54 32
180 153 176
80 71 63
64 66 41
58 53 41
99 93 93
55 61 38
68 75 45
84 87 63
131 126 110
135 97 114
171 118 152
209 160 199
220 184 217
99 86 81
130 94 124
112 88 100
110 98 96
111 105 98
53 63 40
68 82 55
89 98 65
80 83 60
44 47 33
53 41 46
147 119 141
123 83 110
206 160 204
228 173 225
189 156 182
204 138 184
186 130 162
189 142 179
177 121 164
191 142 178
206 151 192
169 134 164
205 159 184
189 139 167
206 159 196
182 131 175
220 175 208
211 168 199
209 161 195
160 109 141
143 95 123
129 107 113
136 87 114
137 93 115
129 81 107
144 90 123
158 105 141
182 141 175
172 138 164
200 172 198
198 169 189
130 92 109
199 164 198
172 129 158
154 106 137
160 108 141
154 102 133
137 90 122
153 117 137
165 137 155
144 131 134
79 66 62
74 73 49
90 92 86
158 137 156
61 52 43
74 70 56
137 115 130
158 116 145
155 110 136
144 97 130
215 173 207
187 157 183
61 55 46
144 106 134
117 80 105
104 84 94
72 74 35
64 72 45
68 69 50
98 75 87
155 115 149
134 91 121
175 132 164
188 151 183
206 170 200
182 146 174
217 176 205
194 150 180
209 150 196
191 152 182
201 159 190
178 140 173
174 119 148
195 151 188
200 152 191
207 165 195
191 145 177
193 143 183
216 171 209
186 136 167
186 136 168
195 150 187
172 123 155
158 107 143
134 84 113
165 117 149
152 104 135
149 99 133
203 153 190
165 115 151
206 167 202
198 161 192
156 116 146
133 93 122
100 68 86
224 184 217
190 147 175
206 151 192
206 151 192
166 117 149
179 134 170
153 117 137
182 156 178
72 51 39
57 52 24
51 49 25
134 128 127
184 157 184
111 83 101
145 123 135
203 177 198
203 152 192
162 112 149
217 176 213
197 158 188
99 76 85
85 60 62
85 60 62
140 100 128
96 101 66
76 92 45
89 98 65
80 83 60
98 75 87
155 115 149
138 86 116
176 134 165
223 186 219
225 190 222
216 181 207
175 130 153
177 134 156
223 171 217
201 169 194
153 115 140
169 134 156
211 172 208
190 149 184
165 118 152
148 98 131
158 108 149
187 137 180
215 170 202
172 120 156
175 124 164
187 143 179
196 153 182
151 106 136
98 63 79
172 134 157
155 112 139
200 156 190
230 181 220
215 174 209
214 182 211
200 172 190
129 94 109
165 125 152
171 124 153
213 172 205
202 161 189
198 155 192
206 151 192
200 140 188
165 125 152
171 124 153
153 117 137
165 137 155
165 137 155
97 75 89
174 146 171
220 186 222
195 160 193
227 189 225
181 149 171
200 140 188
187 134 179
195 146 188
159 116 145
99 81 85
125 93 108
126 84 111
140 100 128
111 105 98
66 66 43
99 114 76
80 83 60
50 51 35
137 93 119
173 129 160
186 146 176
200 166 192
153 115 140
169 134 156
189 150 174
199 163 188
213 172 205
202 161 189
190 152 182
208 167 202
209 176 206
167 133 160
135 86 117
117 64 96
159 110 150
178 134 166
112 64 91
155 99 136
163 113 150
181 140 172
172 130 157
129 85 108
170 122 151
166 118 146
175 138 164
169 126 153
125 74 104
175 132 164
188 151 183
206 170 200
182 146 174
217 176 205
199 152 183
191 139 179
223 183 219
211 172 208
198 155 192
198 155 192
179 134 170
194 150 180
174 131 165
201 157 194
201 157 194
145 119 139
179 134 165
203 161 200
210 170 207
195 160 193
227 189 225
209 157 196
198 140 182
203 147 191
189 146 177
152 127 145
156 98 135
117 80 105
104 84 94
72 74 35
86 97 51
55 66 45
98 75 87
155 115 149
184 135 167
169 112 137
181 133 157
199 160 188
190 152 182
208 167 202
209 176 206
167 133 160
201 161 195
206 168 201
209 176 209
209 176 209
206 168 201
177 132 169
112 72 96
132 82 115
163 117 155
168 125 157
118 78 101
161 107 145
186 135 175
188 143 176
131 81 109
202 151 190
202 162 188
107 73 84
95 69 76
132 85 110
138 86 116
176 134 165
223 186 219
225 190 222
216 181 207
175 130 153
199 164 198
209 176 209
217 168 207
209 150 196
184 139 171
209 176 209
175 130 153
177 134 156
169 134 156
177 134 156
177 134 156
165 137 155
182 133 163
198 153 192
209 176 202
199 154 194
223 179 214
212 167 194
168 116 145
200 154 191
173 131 159
179 145 167
130 94 124
117 80 105
104 84 94
72 74 35
86 103 63
68 69 50
84 72 73
152 119 143
190 152 178
205 160 186
198 164 187
107 92 99
157 132 148
209 176 209
206 168 201
177 132 169
209 157 196
203 146 191
175 149 171
175 149 171
157 119 147
176 127 166
120 79 110
133 86 123
136 91 126
156 111 142
167 128 154
184 135 174
193 149 184
179 134 166
134 84 113
165 117 149
195 154 187
112 79 86
105 72 84
137 93 119
173 129 160
186 146 176
200 166 192
153 115 140
169 134 156
189 150 174
199 163 188
209 150 196
165 112 157
223 171 217
159 122 144
175 149 171
157 119 147
176 127 166
169 134 156
189 150 174
199 163 188
178 128 167
206 169 195
175 139 164
189 141 180
224 176 218
205 151 192
159 107 138
141 100 122
126 90 112
180 136 163
159 121 140
117 80 105
117 80 105
151 127 137
110 98 96
86 103 63
99 114 76
213 175 213
182 142 178
209 156 198
155 101 137
214 182 212
210 184 206
118 88 102
175 149 171
157 119 147
176 127 166
212 167 194
189 130 159
177 132 169
173 131 159
152 127 145
130 92 109
122 81 100
137 90 122
111 67 98
156 117 143
147 104 129
142 97 127
170 128 160
181 144 168
98 63 79
87 61 58
112 94 91
138 99 120
193 154 178
184 135 167
169 112 137
181 133 157
199 160 188
190 152 182
208 167 202
209 176 206
167 133 160
176 125 159
185 138 171
170 141 158
155 117 140
199 164 198
172 129 158
154 106 137
219 172 204
195 151 180
191 152 182
188 143 181
201 169 194
159 122 144
207 156 190
188 129 167
206 157 196
203 163 198
190 160 181
148 115 134
140 95 108
139 96 130
130 94 124
112 88 100
110 98 96
111 105 98
79 96 50
89 98 65
203 172 197
198 158 190
180 126 167
182 130 168
194 156 191
199 165 194
153 117 141
199 164 198
172 129 158
154 106 137
159 107 138
217 168 207
126 90 112
180 136 163
179 145 167
100 85 93
122 84 103
213 177 207
221 180 216
217 176 210
212 176 210
207 162 191
180 118 146
181 131 160
170 122 151
166 118 146
101 86 73
182 145 174
130 92 115
190 152 178
205 160 186
198 164 187
107 92 99
157 132 148
209 176 209
206 168 201
177 132 169
200 157 194
201 169 194
143 95 123
129 107 113
202 166 202
223 179 214
179 138 170
194 144 179
174 119 148
176 125 159
185 138 171
170 141 158
155 117 140
187 137 170
168 116 146
214 174 208
214 182 211
191 168 184
160 139 146
189 156 176
89 73 73
144 106 134
117 80 105
104 84 94
111 105 98
69 80 42
128 99 110
116 78 92
145 96 119
155 102 130
175 129 162
177 127 166
172 130 160
121 95 99
202 166 202
198 156 193
206 157 196
203 163 198
190 160 181
148 115 134
140 95 108
159 121 140
165 141 162
167 111 150
173 123 160
189 138 171
203 156 190
191 146 177
147 93 124
203 159 188
97 68 77
88 112 55
89 102 60
159 132 152
166 142 155
182 142 178
209 156 198
155 101 137
214 182 212
210 184 206
118 88 102
175 149 171
157 119 147
225 169 218
225 169 218
169 134 164
205 159 184
189 139 167
206 159 196
182 131 175
220 175 208
211 168 199
209 161 195
160 109 141
143 95 123
129 107 113
120 94 103
202 161 196
213 175 208
153 124 144
128 89 111
127 95 112
196 165 192
185 156 178
117 89 100
149 114 137
151 127 137
96 101 66
76 92 45
73 87 48
169 130 160
162 119 146
142 98 121
191 148 177
172 131 159
191 144 182
214 171 209
194 161 184
200 160 192
199 152 183
214 174 208
214 182 211
191 168 184
160 139 146
189 156 176
166 142 155
128 102 118
205 157 197
219 169 209
188 138 168
209 161 195
202 160 193
176 135 164
151 122 134
86 93 57
126 146 105
106 124 76
164 125 159
125 107 114
198 158 190
180 126 167
182 130 168
194 156 191
199 165 194
153 117 141
199 164 198
213 171 207
199 154 194
195 151 188
200 152 191
207 165 195
191 145 177
193 143 183
216 171 209
186 136 167
186 136 168
195 150 187
172 123 155
158 107 143
185 151 171
125 83 109
180 142 174
209 176 208
207 175 198
124 83 102
150 114 137
171 136 164
179 147 173
123 93 112
112 88 100
110 98 96
111 105 98
79 96 50
106 135 77
184 146 173
143 99 128
153 111 140
210 169 205
216 173 209
207 161 197
213 170 205
212 169 210
200 155 187
186 130 162
153 124 144
128 89 111
127 95 112
196 165 192
185 156 178
89 73 73
193 165 188
190 153 181
208 172 209
210 180 204
194 163 191
220 180 218
182 148 168
105 81 77
95 72 70
64 82 43
96 101 66
89 102 60
159 134 143
145 96 119
155 102 130
175 129 162
177 127 166
172 130 160
121 95 99
202 166 202
162 133 153
213 171 207
190 149 184
165 118 152
148 98 131
158 108 149
187 137 180
215 170 202
172 120 156
175 124 164
187 143 179
196 153 182
151 106 136
184 143 167
125 83 109
172 138 164
200 172 198
198 169 189
130 92 109
122 81 100
119 75 93
138 103 124
151 127 137
117 80 105
104 84 94
72 74 35
86 97 51
69 80 42
109 73 92
106 69 88
128 88 111
208 165 201
212 167 205
164 122 149
101 66 83
181 131 171
214 172 211
201 165 195
196 155 186
124 83 102
150 114 137
154 119 135
179 147 173
117 89 100
96 98 76
200 172 195
217 181 219
160 140 147
128 108 115
158 129 150
129 92 116
84 70 63
145 122 132
110 104 88
111 105 98
99 123 75
162 119 146
142 98 121
191 148 177
172 131 159
191 144 182
214 171 209
194 161 184
219 172 204
195 151 180
191 152 182
135 89 123
135 86 117
117 64 96
159 110 150
178 134 166
112 64 91
155 99 136
163 113 150
181 140 172
172 130 157
151 106 136
159 122 144
100 68 86
198 161 192
156 116 146
133 93 122
100 68 86
122 84 103
105 62 80
105 72 88
83 95 55
111 105 98
79 96 50
96 101 66
76 95 56
73 87 48
76 55 60
90 62 74
130 94 117
192 149 183
161 113 150
172 120 159
142 98 129
202 149 190
216 172 216
200 172 198
198 169 189
130 92 109
122 81 100
119 75 93
100 96 74
91 114 59
82 93 59
167 146 161
201 171 194
109 83 94
133 100 113
161 126 150
132 101 121
113 85 97
130 94 124
112 88 100
110 98 96
111 105 98
79 96 50
153 111 140
210 169 205
216 173 209
207 161 197
213 170 205
212 169 210
200 155 187
154 119 142
137 115 123
128 96 113
112 72 96
132 82 115
163 117 155
168 125 157
118 78 101
161 107 145
186 135 175
191 142 178
182 146 174
170 141 158
155 117 140
217 170 205
165 137 155
129 94 109
165 125 152
171 124 153
126 85 107
124 90 113
174 168 159
105 96 75
110 98 96
86 97 51
69 80 42
77 96 58
52 52 36
55 49 43
100 77 89
124 83 114
174 132 162
138 102 126
159 106 146
162 102 143
187 129 174
198 161 192
156 116 146
133 93 122
100 68 86
122 84 103
105 62 80
85 94 60
88 112 55
89 102 60
82 76 55
159 134 143
132 93 116
160 116 146
215 169 210
110 74 91
133 91 123
151 127 137
110 98 96
110 98 96
72 74 35
106 69 88
128 88 111
164 125 159
212 167 205
164 122 149
101 66 83
181 131 171
178 127 170
190 141 182
125 95 111
102 72 87
120 79 110
133 86 123
136 91 126
156 111 142
167 128 154
184 135 174
188 143 179
160 109 141
143 95 123
129 107 113
120 94 103
188 145 176
224 184 217
190 147 175
206 151 192
194 150 180
195 146 188
214 171 210
180 142 167
85 60 62
66 66 43
57 61 37
62 69 45
68 82 55
45 47 35
63 62 49
67 52 55
135 107 125
112 82 99
107 70 92
155 110 142
189 134 175
202 153 189
200 172 190
129 94 109
165 125 152
171 124 153
126 85 107
124 90 113
79 85 53
76 87 49
99 123 73
128 135 110
125 107 114
197 158 185
175 119 149
210 165 198
178 135 167
190 152 184
110 98 96
104 84 94
104 84 94
72 74 35
90 62 74
130 94 117
192 149 183
161 113 150
172 120 159
142 98 129
162 116 144
177 126 164
195 145 186
172 124 159
195 146 187
184 134 175
174 128 163
111 67 98
156 117 143
147 104 129
174 131 170
206 151 192
200 140 188
158 107 143
185 151 171
125 83 109
178 131 166
213 172 205
189 156 182
201 165 195
195 151 180
200 154 191
200 148 184
180 128 167
149 114 137
151 127 137
96 101 66
76 92 45
68 70 54
70 78 52
88 93 66
64 62 49
48 43 37
98 75 87
155 115 149
134 91 121
153 111 145
188 151 183
206 170 200
182 146 174
217 176 205
194 150 180
191 155 183
196 162 191
76 73 53
101 110 78
73 90 49
145 126 135
205 171 203
214 177 209
208 161 194
217 174 211
217 176 215
162 119 146
117 80 105
104 84 94
72 74 35
55 49 43
100 77 89
124 83 114
174 132 162
138 102 126
154 111 142
214 173 212
108 79 93
187 156 180
214 173 206
177 126 158
209 163 198
211 170 204
213 177 207
221 180 216
217 176 210
184 144 173
204 138 184
198 155 192
209 157 196
151 106 136
184 143 167
163 115 149
198 157 192
153 117 141
199 164 198
172 129 158
154 106 137
171 118 152
209 160 199
180 131 162
105 96 75
110 98 96
111 105 98
79 96 50
53 63 40
55 66 45
89 98 65
80 83 60
50 51 35
84 72 73
152 119 143
103 67 91
190 144 187
223 186 219
225 190 222
216 181 207
175 130 153
177 134 156
193 154 185
217 173 212
123 114 104
114 116 96
86 103 63
162 157 146
146 131 118
153 126 144
213 173 207
112 81 95
184 146 173
143 99 128
153 111 140
50 54 36
45 47 35
63 62 49
67 52 55
135 107 125
112 82 99
107 70 92
170 130 162
105 92 86
134 97 117
154 111 142
214 173 212
200 148 182
197 145 181
167 111 150
173 123 160
189 138 171
190 152 182
208 167 202
209 176 206
167 133 160
212 167 194
137 90 122
146 102 121
197 156 183
177 135 168
162 125 156
213 172 205
190 152 182
155 110 136
144 97 130
215 173 207
220 184 217
85 60 62
80 71 63
64 66 41
58 53 41
64 72 45
68 69 50
99 114 76
79 74 60
44 47 33
53 41 46
228 173 225
189 130 159
186 146 176
200 166 192
153 115 140
169 134 156
189 150 174
199 163 188
194 154 187
212 164 202
139 106 126
123 88 106
86 93 57
126 146 105
106 124 76
152 139 142
207 175 204
125 89 107
109 73 92
106 69 88
128 88 111
208 165 201
70 78 52
88 93 66
64 62 49
48 43 37
98 75 87
155 115 149
139 92 119
85 68 64
200 163 194
213 171 209
183 148 174
218 180 219
213 166 207
205 157 197
219 169 209
188 138 168
157 132 148
209 176 209
206 168 201
177 132 169
137 90 122
137 90 122
137 93 115
191 139 179
182 136 174
198 164 187
199 152 183
189 142 179
223 171 217
217 176 213
197 158 188
187 157 183
125 93 108
120 89 107
68 53 47
99 93 93
103 119 85
85 97 61
154 155 142
187 164 183
99 83 81
153 140 149
216 172 215
205 160 186
181 133 157
199 160 188
190 152 182
208 167 202
209 176 206
167 133 160
201 161 195
154 119 135
171 136 164
179 147 173
117 89 100
64 82 43
100 121 70
117 121 98
130 121 114
118 95 104
76 55 60
90 62 74
130 94 117
192 149 183
55 66 45
89 98 65
80 83 60
50 51 35
84 72 73
152 119 143
104 110 78
84 76 60
130 113 108
179 155 167
94 71 68
210 181 207
193 165 188
190 153 181
208 172 209
202 149 190
198 156 193
157 119 147
176 127 166
173 123 162
167 120 153
141 96 129
159 122 144
191 139 179
182 136 174
213 165 206
201 165 195
157 132 148
209 150 196
195 146 188
159 116 145
99 76 85
125 93 108
105 81 89
110 98 96
111 105 98
91 114 68
113 135 86
145 131 132
215 182 221
155 137 148
182 142 178
209 156 198
155 101 137
214 182 212
107 92 99
157 132 148
209 176 209
206 168 201
177 132 169
188 143 179
96 86 73
119 75 93
138 103 124
123 93 112
110 104 88
99 123 75
75 91 52
60 66 44
52 52 36
55 49 43
100 77 89
124 83 114
174 132 162
68 69 50
99 114 76
79 74 60
44 47 33
53 41 46
147 119 141
98 118 78
78 90 58
97 111 75
88 97 62
74 81 51
111 115 88
96 98 76
200 172 195
217 181 219
187 129 174
199 152 183
189 142 179
177 121 164
160 108 141
154 102 133
137 90 122
155 117 140
217 170 205
197 158 193
216 172 216
189 156 182
153 117 141
202 145 193
203 147 191
189 146 177
184 141 172
132 101 121
113 85 97
104 84 94
76 87 49
101 110 78
145 126 135
205 171 203
212 167 205
203 172 197
198 158 190
180 126 167
182 130 168
194 156 191
210 184 206
118 88 102
175 149 171
157 119 147
176 127 166
173 123 162
57 54 32
105 62 80
105 72 88
87 67 72
175 142 169
175 141 169
172 133 167
50 54 36
45 47 35
63 62 49
67 52 55
135 107 125
112 82 99
103 119 85
154 155 142
187 164 183
99 83 81
153 140 149
220 186 222
97 116 70
99 119 62
119 138 93
106 121 81
84 97 57
91 114 59
82 93 59
167 146 161
162 102 143
202 149 190
186 130 162
201 159 190
197 144 185
158 106 140
166 117 149
179 134 170
155 117 140
182 136 172
126 88 113
214 178 212
199 165 194
153 117 141
201 142 190
200 154 191
173 131 159
161 126 150
110 74 91
133 91 123
76 73 53
101 110 78
73 90 49
145 126 135
205 171 203
128 99 110
116 78 92
145 96 119
155 102 130
175 129 162
177 127 166
199 165 194
153 117 141
199 164 198
172 129 158
154 106 137
160 108 141
126 85 107
124 90 113
151 122 142
112 84 96
194 160 192
165 135 160
150 120 144
68 70 54
70 78 52
88 93 66
64 62 49
48 43 37
98 75 87
113 135 86
145 131 132
215 182 221
155 137 148
108 95 93
77 59 56
116 112 87
127 121 90
174 168 159
83 95 55
78 93 50
88 112 55
89 102 60
101 66 83
181 131 171
214 172 211
201 165 195
196 155 186
212 171 209
177 132 169
191 142 178
137 99 127
120 94 103
189 141 180
188 145 177
201 157 194
213 172 205
169 134 156
191 149 186
126 90 112
160 116 146
215 169 210
178 135 167
190 152 184
73 90 49
145 126 135
162 157 146
146 131 118
167 132 162
169 130 160
162 119 146
142 98 121
191 148 177
175 129 162
177 127 166
172 130 160
121 95 99
202 166 202
198 156 193
176 128 168
158 106 140
191 155 183
196 162 191
221 179 207
203 159 188
97 68 77
63 52 47
67 49 48
110 82 92
55 66 45
89 98 65
80 83 60
50 51 35
84 72 73
84 87 63
217 186 221
202 175 200
83 67 79
222 187 218
226 186 220
207 156 190
214 171 210
180 142 167
105 96 75
79 85 53
159 122 144
206 169 195
142 98 129
202 149 190
216 172 216
189 156 182
184 144 173
174 131 170
191 152 182
190 144 180
161 122 146
159 122 144
191 139 179
182 136 174
213 165 206
221 182 219
224 188 231
176 146 168
197 158 185
175 119 149
210 165 198
217 176 215
114 116 96
86 103 63
162 157 146
86 97 51
153 126 144
112 81 95
184 146 173
143 99 128
153 111 140
191 148 177
172 131 159
191 144 182
214 171 209
194 161 184
200 160 192
199 152 183
189 142 179
96 86 73
85 94 60
217 173 212
226 177 213
198 149 183
78 50 55
65 60 45
59 55 35
105 92 86
68 69 50
99 114 76
79 74 60
44 47 33
53 41 46
128 111 128
185 151 171
125 83 109
178 131 166
180 131 167
195 149 185
187 137 170
168 116 146
214 174 208
187 157 183
61 55 46
112 102 96
156 133 150
162 102 143
187 129 174
227 179 218
194 157 190
210 160 204
174 119 148
176 125 159
185 138 171
170 141 158
155 117 140
217 170 205
197 158 193
227 184 223
202 156 193
209 161 195
205 171 203
214 177 209
208 161 194
217 174 211
166 126 153
118 95 104
76 92 45
73 87 48
116 127 100
79 84 67
125 89 107
109 73 92
106 69 88
128 88 111
208 165 201
216 173 209
207 161 197
213 170 205
212 169 210
200 155 187
186 130 162
201 159 190
57 54 32
79 85 57
97 116 70
196 147 175
127 72 102
158 123 145
79 65 57
81 75 54
103 119 85
85 97 61
154 155 142
187 164 183
99 83 81
196 153 182
151 106 136
184 143 167
163 115 149
198 157 192
192 151 187
204 166 201
202 161 196
213 175 208
153 124 144
128 89 111
58 59 45
64 50 50
156 133 150
180 131 167
202 153 189
178 122 155
200 157 194
212 161 205
209 161 195
160 109 141
143 95 123
129 107 113
120 94 103
188 145 176
222 187 218
226 186 220
86 103 63
162 157 146
146 131 118
153 126 144
213 173 207
140 105 124
152 125 143
118 95 104
79 96 50
73 87 48
73 87 48
116 127 100
118 95 104
76 55 60
90 62 74
130 94 117
192 149 183
212 167 205
164 122 149
101 66 83
181 131 171
214 172 211
201 165 195
196 153 182
186 136 167
186 136 168
195 150 187
143 96 124
147 96 123
154 119 135
100 96 74
104 110 78
91 114 68
113 135 86
145 131 132
215 182 221
155 137 148
172 130 157
129 85 108
146 102 121
197 156 183
177 135 168
162 125 156
215 182 212
180 142 174
209 176 208
207 175 198
138 114 132
58 59 45
61 57 49
173 153 176
153 111 145
212 175 211
210 157 197
225 169 218
218 160 202
195 150 187
172 123 155
158 107 143
185 151 171
125 83 109
178 131 166
180 131 167
123 88 106
86 93 57
126 146 105
106 124 76
152 139 142
207 175 204
113 99 95
169 147 161
72 74 35
86 97 51
106 135 77
76 95 56
65 62 45
52 52 36
55 49 43
100 77 89
130 94 117
192 149 183
161 113 150
172 120 159
142 98 129
202 149 190
216 172 216
187 137 180
215 170 202
172 120 156
175 124 164
187 143 179
178 133 167
184 141 172
96 86 73
85 94 60
68 75 45
84 87 63
131 126 110
145 131 132
201 174 204
188 143 176
131 81 109
136 87 114
137 93 115
129 81 107
144 90 123
158 105 141
182 141 175
172 138 164
200 172 198
198 169 189
144 131 134
57 52 24
163 117 155
145 131 132
190 144 187
221 176 223
203 146 191
197 134 180
202 145 193
187 143 179
196 153 182
151 106 136
184 143 167
163 115 149
198 157 192
191 153 183
136 101 119
86 89 63
64 82 43
100 121 70
117 121 98
130 121 114
86 86 66
72 74 35
72 74 35
86 97 51
69 80 42
77 96 58
50 54 36
45 47 35
63 62 49
100 77 89
124 83 114
174 132 162
138 102 126
159 106 146
162 102 143
187 129 174
227 179 218
178 134 166
112 64 91
155 99 136
163 113 150
181 140 172
141 96 129
129 91 116
57 54 32
79 85 57
74 70 56
137 115 130
157 120 151
140 127 129
184 142 172
179 134 166
134 84 113
165 117 149
152 104 135
149 99 133
203 153 190
165 115 151
206 167 202
198 161 192
156 116 146
144 131 134
57 52 24
84 87 63
131 126 110
140 127 129
190 144 187
228 173 225
189 130 159
202 161 196
213 175 208
177 132 169
172 130 157
129 85 108
146 102 121
197 156 183
187 143 179
115 71 95
122 83 101
145 122 132
110 104 88
99 123 75
75 91 52
60 66 44
79 84 67
56 60 46
50 54 36
106 135 77
76 95 56
54 56 42
68 70 54
70 78 52
88 93 66
67 52 55
135 107 125
112 82 99
107 70 92
155 110 142
189 134 175
202 153 189
216 172 216
168 125 157
118 78 101
161 107 145
186 135 175
188 143 176
137 90 122
153 117 137
165 137 155
77 59 56
116 112 87
203 177 198
157 120 151
157 120 151
175 143 166
181 144 168
98 63 79
172 134 157
155 112 139
200 156 190
230 181 220
215 174 209
214 182 211
200 172 190
129 94 109
61 52 43
74 70 56
137 115 130
157 120 151
175 143 166
184 142 172
179 134 165
178 128 167
177 132 169
177 132 169
188 143 176
131 81 109
136 87 114
137 93 115
129 81 107
144 90 123
124 80 111
121 83 114
149 114 137
151 127 137
96 101 66
76 92 45
73 87 48
116 127 100
54 56 42
68 70 54
69 80 42
77 96 58
66 73 56
53 63 40
70 78 52
88 93 66
64 62 49
48 43 37
98 75 87
155 115 149
134 91 121
153 111 145
187 129 174
227 179 218
156 111 142
167 128 154
184 135 174
193 149 184
179 134 166
179 134 170
174 131 165
166 117 149
179 134 170
174 131 165
162 133 153
171 124 153
126 85 107
180 118 146
181 131 160
170 122 151
166 118 146
175 138 164
169 126 153
125 74 104
175 132 164
188 151 183
206 170 200
182 146 174
111 83 101
145 123 135
203 177 198
209 176 202
199 154 194
201 151 185
201 151 185
205 159 197
206 168 201
185 138 171
206 157 196
134 84 113
165 117 149
152 104 135
195 150 187
217 173 212
139 96 130
130 94 124
112 88 100
110 98 96
111 105 98
79 96 50
106 135 77
76 95 56
66 73 56
53 63 40
55 66 45
77 96 58
66 73 56
53 63 40
55 66 45
89 98 65
80 83 60
50 51 35
84 72 73
152 119 143
103 67 91
190 144 187
202 153 189
111 67 98
156 117 143
147 104 129
142 97 127
170 128 160
181 144 168
200 160 192
126 88 113
214 178 212
224 184 217
190 147 175
206 151 192
194 150 180
187 134 179
210 162 189
223 183 214
202 162 188
107 73 84
95 69 76
132 85 110
138 86 116
176 134 165
223 186 219
225 190 222
216 181 207
195 160 193
227 189 225
181 149 171
162 133 153
213 171 207
223 179 214
179 138 170
194 144 179
174 119 148
176 125 159
185 138 171
98 63 79
172 134 157
155 112 139
200 156 190
217 173 212
170 130 162
144 106 134
117 80 105
104 84 94
72 74 35
86 97 51
69 80 42
77 96 58
68 74 55
64 72 45
62 69 45
68 82 55
68 74 55
64 72 45
68 69 50
99 114 76
79 74 60
44 47 33
53 41 46
203 172 197
198 158 190
180 126 167
182 130 168
221 180 216
217 176 210
212 176 210
207 162 191
180 118 146
181 131 160
200 155 187
188 145 177
201 157 194
213 172 205
202 161 189
198 155 192
209 157 196
212 171 209
209 170 203
211 177 201
202 162 191
112 79 86
105 72 84
137 93 119
173 129 160
186 146 176
200 166 192
153 115 140
213 170 207
206 170 204
209 173 205
219 172 204
195 151 180
191 152 182
188 143 181
220 175 208
211 168 199
209 161 195
160 109 141
160 109 141
148 115 134
140 95 108
159 121 140
165 141 162
204 163 201
139 92 119
126 84 111
140 100 128
94 74 78
66 66 43
57 61 37
62 69 45
68 82 55
71 86 51
103 119 85
62 69 45
68 82 55
68 74 55
64 72 45
205 171 203
214 177 209
208 161 194
217 174 211
217 176 215
116 78 92
145 96 119
155 102 130
173 123 160
189 138 171
203 156 190
191 146 177
147 93 124
210 162 189
223 183 214
191 139 179
182 136 174
213 165 206
221 182 219
223 183 219
211 172 208
212 167 194
174 131 170
208 178 206
95 72 70
97 72 73
167 136 157
193 154 178
184 135 167
169 112 137
181 133 157
199 160 188
190 152 182
208 167 202
199 160 188
190 152 182
208 167 202
209 176 206
167 133 160
174 119 148
176 125 159
185 138 171
195 150 187
214 174 208
160 139 146
160 139 146
189 156 176
166 142 155
128 102 118
138 99 120
148 107 134
145 106 133
120 89 107
68 53 47
63 61 43
58 66 40
100 120 87
93 116 78
74 86 52
68 69 50
100 120 87
68 82 55
68 74 55
57 61 37
146 131 118
153 126 144
213 173 207
140 105 124
166 126 153
218 180 219
142 98 121
205 157 197
219 169 209
188 138 168
209 161 195
202 160 193
176 135 164
151 122 134
211 177 201
155 117 140
182 136 174
216 171 209
202 156 193
223 183 219
205 151 192
159 107 138
198 155 192
199 163 188
89 75 70
116 91 101
182 145 174
130 92 115
190 152 178
205 160 186
198 164 187
107 92 99
157 132 148
209 176 209
107 92 99
157 132 148
209 176 209
206 168 201
177 132 169
188 143 179
172 120 156
175 124 164
187 143 179
196 153 182
211 177 201
202 162 191
112 79 86
105 72 84
137 93 119
140 96 125
158 125 151
171 137 161
105 81 89
54 47 39
60 62 43
52 55 34
63 69 53
58 67 41
85 97 61
85 97 61
99 93 93
111 105 98
79 96 50
86 97 51
106 124 76
152 139 142
207 175 204
113 99 95
186 156 179
210 181 207
193 165 188
190 153 181
208 172 209
210 180 204
194 163 191
220 180 218
182 148 168
105 81 77
95 72 70
217 170 205
197 158 193
226 186 220
207 156 190
188 129 167
206 157 196
203 163 198
174 119 148
176 125 159
122 96 109
205 171 202
213 175 213
182 142 178
209 156 198
155 101 137
214 182 212
210 184 206
118 88 102
175 149 171
217 170 212
118 88 102
175 149 171
157 119 147
176 127 166
177 132 169
143 114 135
196 165 192
181 140 172
89 73 73
152 110 138
140 103 121
160 124 145
193 154 178
130 96 112
132 93 116
125 96 118
107 77 100
180 153 176
80 71 63
64 66 41
58 53 41
99 93 93
55 61 38
113 135 86
113 135 86
180 142 167
180 128 167
85 60 62
69 80 42
100 121 70
117 121 98
130 121 114
86 86 66
169 147 161
54 56 42
96 98 76
200 172 195
217 181 219
160 140 147
128 108 115
158 129 150
129 92 116
84 70 63
89 75 70
155 117 140
217 170 205
197 158 193
186 136 168
195 150 187
195 150 187
211 168 199
209 161 195
160 109 141
143 95 123
114 78 100
203 172 197
198 158 190
180 126 167
182 130 168
194 156 191
199 165 194
153 117 141
199 164 198
170 141 158
155 117 140
199 164 198
172 129 158
154 106 137
102 83 81
120 87 108
190 149 184
165 118 152
84 70 63
89 75 70
61 66 47
112 101 93
164 125 159
187 141 179
175 119 149
175 119 149
112 82 105
214 171 210
79 66 62
74 73 49
90 92 86
158 137 156
61 52 43
131 126 110
140 127 129
119 138 93
126 84 111
85 60 62
110 104 88
99 123 75
75 91 52
60 66 44
79 84 67
75 77 68
66 73 56
52 52 36
167 146 161
201 171 194
109 83 94
133 100 113
161 126 150
132 101 121
113 85 97
122 96 109
114 78 100
203 172 197
198 158 190
178 135 167
190 152 184
186 136 167
186 136 168
195 150 187
209 161 195
158 124 146
128 99 110
116 78 92
145 96 119
155 102 130
175 129 162
177 127 166
172 130 160
188 129 167
206 157 196
209 161 195
160 109 141
209 163 198
211 170 204
213 177 207
120 92 104
126 88 114
113 85 97
132 101 121
113 85 97
110 104 88
99 123 75
75 91 52
128 99 110
189 139 167
214 173 206
177 126 158
209 163 198
200 158 194
57 52 24
51 49 25
134 128 127
184 157 184
157 120 151
157 120 151
174 168 159
174 168 159
145 106 133
149 114 137
151 127 137
96 101 66
76 92 45
73 87 48
116 127 100
56 60 46
50 54 36
45 47 35
106 69 88
159 134 143
132 93 116
160 116 146
215 169 210
110 74 91
133 91 123
126 85 113
172 124 150
116 78 92
217 174 211
217 176 215
191 158 186
167 132 162
169 130 160
162 119 146
191 158 186
167 132 162
169 130 160
162 119 146
142 98 121
191 148 177
172 131 159
219 169 209
188 138 168
186 136 167
186 136 168
195 150 187
200 148 182
197 145 181
167 111 150
173 123 160
189 138 171
110 74 91
133 91 123
121 83 114
149 114 137
151 127 137
96 101 66
76 92 45
169 130 160
162 119 146
191 148 177
212 167 205
190 141 182
125 95 111
102 72 87
97 75 89
174 146 171
136 91 126
137 115 130
209 176 202
180 142 167
180 142 167
105 96 75
79 85 53
110 98 96
111 105 98
79 96 50
106 135 77
76 95 56
54 56 42
68 70 54
90 62 74
128 135 110
125 107 114
197 158 185
175 119 149
217 174 211
217 176 215
190 152 184
167 132 162
169 130 160
162 119 146
140 105 124
166 126 153
130 92 110
112 81 95
184 146 173
143 99 128
153 111 140
112 81 95
184 146 173
143 99 128
153 111 140
210 169 205
190 153 181
208 172 209
210 180 204
172 120 156
175 124 164
187 143 179
218 180 219
213 166 207
205 157 197
219 169 209
210 165 198
178 135 167
190 152 184
130 94 124
112 88 100
110 98 96
111 105 98
79 96 50
106 135 77
90 62 74
130 94 117
192 149 183
195 145 186
172 124 159
195 146 187
184 134 175
174 128 163
111 67 98
156 117 143
212 176 210
207 162 191
180 128 167
85 60 62
76 73 53
104 84 94
72 74 35
86 97 51
69 80 42
77 96 58
79 96 50
106 135 77
76 95 56
90 62 74
205 171 203
214 177 209
208 161 194
140 105 124
166 126 153
130 92 110
112 81 95
184 146 173
143 99 128
113 99 95
186 156 179
143 102 130
125 89 107
109 73 92
186 156 179
143 102 130
125 89 107
109 73 92
106 69 88
55 49 43
217 181 219
217 181 219
217 181 219
128 108 115
130 113 108
179 155 167
94 71 68
210 181 207
193 165 188
190 153 181
217 176 215
217 174 211
217 176 215
191 158 186
217 176 215
117 80 105
104 84 94
72 74 35
86 97 51
76 92 45
112 81 95
184 146 173
143 99 128
197 160 186
178 127 170
209 163 198
211 170 204
213 177 207
221 180 216
217 176 210
191 146 177
147 93 124
126 84 111
117 80 105
123 114 104
111 105 98
86 97 51
69 80 42
77 96 58
77 96 58
86 97 51
69 80 42
73 87 48
117 121 98
146 131 118
153 126 144
213 173 207
113 99 95
186 156 179
143 102 130
125 89 107
109 73 92
130 121 114
86 86 66
169 147 161
152 125 143
118 95 104
76 55 60
169 147 161
151 127 137
96 101 66
76 92 45
73 87 48
63 62 49
67 52 55
135 107 125
189 149 188
78 90 58
97 111 75
88 97 62
74 81 51
111 115 88
96 98 76
140 105 124
166 126 153
130 92 110
166 126 153
130 92 110
186 156 179
152 125 143
169 147 161
152 125 143
118 95 104
79 96 50
125 89 107
109 73 92
106 69 88
128 88 111
208 165 201
197 145 181
167 111 150
173 123 160
189 138 171
203 156 190
202 160 193
176 135 164
151 122 134
156 98 135
104 84 94
72 74 35
86 97 51
69 80 42
106 135 77
76 95 56
69 80 42
73 87 48
106 135 77
76 95 56
60 66 44
152 139 142
207 175 204
86 86 66
169 147 161
152 125 143
118 95 104
75 91 52
60 66 44
79 84 67
75 77 68
65 62 45
52 52 36
55 49 43
112 88 100
110 98 96
111 105 98
82 93 59
55 66 45
89 98 65
80 83 60
50 51 35
125 96 118
99 119 62
119 138 93
106 121 81
84 97 57
91 114 59
82 93 59
113 99 95
186 156 179
143 102 130
186 156 179
143 102 130
125 89 107
143 102 130
75 77 68
65 62 45
52 52 36
118 95 104
76 55 60
90 62 74
90 62 74
130 94 117
192 149 183
213 166 207
205 157 197
219 169 209
188 138 168
209 161 195
220 180 218
182 148 168
105 81 77
195 154 187
96 101 66
152 139 142
72 74 35
86 97 51
106 135 77
76 95 56
116 127 100
106 135 77
76 95 56
76 95 56
116 127 100
117 121 98
130 121 114
86 86 66
169 147 161
152 125 143
118 95 104
116 127 100
73 87 48
116 127 100
56 60 46
50 54 36
45 47 35
144 106 134
117 80 105
104 84 94
72 74 35
86 97 51
69 80 42
99 114 76
79 74 60
100 71 90
56 39 41
127 121 90
174 168 159
83 95 55
78 93 50
88 112 55
130 121 114
86 86 66
169 147 161
152 125 143
169 147 161
152 125 143
118 95 104
116 127 100
56 60 46
50 54 36
65 62 45
52 52 36
55 49 43
100 77 89
90 62 74
130 94 117
210 181 207
193 165 188
190 153 181
208 172 209
210 180 204
194 163 191
158 129 150
129 92 116
86 89 63
64 82 43
100 121 70
117 121 98
130 121 114
86 86 66
169 147 161
76 95 56
76 95 56
69 80 42
55 49 43
100 77 89
76 95 56
76 95 56
50 54 36
79 84 67
75 77 68
69 80 42
65 62 45
66 73 56
106 135 77
76 95 56
66 73 56
53 63 40
139 96 130
130 94 124
140 100 128
110 98 96
66 66 43
57 61 37
85 97 61
154 155 142
187 164 183
202 175 200
83 67 79
201 167 203
180 142 167
105 96 75
79 85 53
151 127 137
96 101 66
79 84 67
75 77 68
65 62 45
75 77 68
65 62 45
52 52 36
54 56 42
54 56 42
68 70 54
50 54 36
45 47 35
63 62 49
52 52 36
55 49 43
100 77 89
111 115 88
96 98 76
200 172 195
217 181 219
160 140 147
128 108 115
161 126 150
132 101 121
123 114 104
110 104 88
99 123 75
75 91 52
60 66 44
79 84 67
75 77 68
65 62 45
77 96 58
55 49 43
100 77 89
67 52 55
69 80 42
77 96 58
73 87 48
73 87 48
56 60 46
62 69 45
50 54 36
86 97 51
69 80 42
77 96 58
66 73 56
187 141 179
170 130 162
144 106 134
117 80 105
104 84 94
72 74 35
86 97 51
108 79 93
187 156 180
214 173 206
216 178 218
196 161 192
206 174 211
180 128 167
85 60 62
76 73 53
101 110 78
110 98 96
111 105 98
66 66 43
50 54 36
62 69 45
69 80 42
77 96 58
66 73 56
76 95 56
76 95 56
68 70 54
70 78 52
50 54 36
45 47 35
63 62 49
67 52 55
135 107 125
82 93 59
167 146 161
201 171 194
109 83 94
133 100 113
215 169 210
121 83 114
149 114 137
151 127 137
96 101 66
76 92 45
73 87 48
116 127 100
56 60 46
50 54 36
45 47 35
62 69 45
88 93 66
64 62 49
48 43 37
79 84 67
73 87 48
117 121 98
56 60 46
76 95 56
50 54 36
45 47 35
68 70 54
68 82 55
68 82 55
174 134 160
139 92 119
126 84 111
140 100 128
94 74 78
66 66 43
57 61 37
62 69 45
213 173 207
214 173 212
201 155 195
172 123 150
168 109 131
156 98 135
125 93 108
123 114 104
117 80 105
104 84 94
94 74 78
66 66 43
57 61 37
62 69 45
77 96 58
54 56 42
69 80 42
77 96 58
77 96 58
77 96 58
54 56 42
68 70 54
70 78 52
88 93 66
64 62 49
48 43 37
89 102 60
82 76 55
159 134 143
132 93 116
160 116 146
210 165 198
104 84 94
72 74 35
110 98 96
111 105 98
79 96 50
106 135 77
76 95 56
54 56 42
68 70 54
70 78 52
54 56 42
68 70 54
70 78 52
73 87 48
116 127 100
116 127 100
56 60 46
50 54 36
77 96 58
68 70 54
70 78 52
55 66 45
116 127 100
56 60 46
174 134 160
139 92 119
126 84 111
140 100 128
94 74 78
66 66 43
58 66 40
152 139 142
207 175 204
183 148 174
186 156 179
212 171 204
202 151 190
209 160 203
192 149 184
96 101 66
151 127 137
73 87 48
86 97 51
69 80 42
77 96 58
69 80 42
77 96 58
77 96 58
66 73 56
77 96 58
53 63 40
86 97 51
66 73 56
53 63 40
55 66 45
89 98 65
80 83 60
145 126 135
99 123 73
128 135 110
125 107 114
197 158 185
175 119 149
217 174 211
143 102 130
125 89 107
86 97 51
111 105 98
77 96 58
66 73 56
77 96 58
66 73 56
68 70 54
77 96 58
66 73 56
53 63 40
79 96 50
106 135 77
76 95 56
76 95 56
54 56 42
68 70 54
76 95 56
54 56 42
70 78 52
70 78 52
76 95 56
54 56 42
68 70 54
148 107 134
79 96 50
106 135 77
111 105 98
63 62 49
63 62 49
117 121 98
130 121 114
94 71 68
160 116 146
159 132 152
110 74 91
139 96 130
75 77 68
111 105 98
110 98 96
106 135 77
76 95 56
77 96 58
68 82 55
57 61 37
62 69 45
68 82 55
68 74 55
68 74 55
69 80 42
57 61 37
77 96 58
77 96 58
53 63 40
55 66 45
89 98 65
110 104 88
73 90 49
145 126 135
205 171 203
214 177 209
208 161 194
